<?xml version="1.0"?>
<svg width="594.968" height="594.968" xmlns="http://www.w3.org/2000/svg" xmlns:svg="http://www.w3.org/2000/svg" enable-background="new 0 0 594.968 594.968" version="1.1" xml:space="preserve">
 <g class="layer">
  <title>Layer 1</title>
  <g id="svg_1">
   <path d="m584.29,298.14c0,4.9 0.72,9.8 0.48,14.63c-0.24,4.89 0.73,9.92 0.25,14.73c-0.49,4.87 -2.57,9.58 -3.29,14.37c-0.74,4.83 -3.81,9.2 -4.78,13.95c-0.98,4.78 -1.24,9.66 -2.45,14.35c-1.22,4.73 -1.18,9.8 -2.63,14.43c-1.46,4.65 -2.01,9.67 -3.7,14.22c-1.69,4.58 -6.61,7.86 -8.52,12.32c-1.93,4.48 -1.58,9.98 -3.72,14.34c-2.15,4.37 -3.54,9.23 -5.91,13.47c-2.36,4.26 -5.43,8.21 -8,12.33c-2.58,4.13 -8.27,6.18 -11.05,10.17c-2.79,3.99 -4.86,8.41 -7.84,12.25c-2.98,3.85 -4.1,9.22 -7.27,12.91c-3.17,3.69 -8.43,5.49 -11.78,9.01c-3.35,3.53 -5.62,8.1 -9.15,11.46c-3.52,3.35 -7.78,5.88 -11.47,9.05c-3.69,3.17 -6.2,7.81 -10.05,10.79c-3.84,2.98 -9.69,3.21 -13.69,5.99c-3.98,2.78 -6.73,7.38 -10.86,9.96c-4.12,2.57 -9.03,3.78 -13.29,6.14c-4.25,2.37 -7.25,7.16 -11.62,9.31c-4.36,2.14 -10.12,1.28 -14.6,3.2c-4.46,1.92 -8.13,5.8 -12.7,7.49c-4.55,1.69 -9.98,0.75 -14.64,2.21c-4.63,1.45 -9.01,3.55 -13.73,4.77c-4.7,1.21 -9.57,1.4 -14.35,2.38c-4.75,0.97 -9.44,1.8 -14.27,2.53c-4.79,0.73 -9.44,2.17 -14.3,2.66c-4.81,0.48 -9.62,0.68 -14.5,0.92c-4.84,0.24 -9.63,2.08 -14.53,2.08s-9.76,-0.33 -14.6,-0.58c-4.88,-0.24 -9.83,0.3 -14.65,-0.18c-4.86,-0.49 -9.44,-3.11 -14.23,-3.84c-4.83,-0.74 -10.07,0.83 -14.82,-0.14c-4.78,-0.98 -9.44,-2.71 -14.13,-3.93c-4.73,-1.22 -8.77,-4.74 -13.4,-6.19c-4.65,-1.46 -10.32,0.04 -14.87,-1.65c-4.58,-1.69 -8.68,-4.71 -13.14,-6.62c-4.48,-1.93 -7.99,-5.87 -12.35,-8.02c-4.37,-2.15 -9.16,-3.39 -13.41,-5.75c-4.25,-2.37 -9.04,-3.86 -13.16,-6.43c-4.13,-2.58 -7.76,-5.94 -11.75,-8.72c-3.99,-2.78 -9.01,-4.25 -12.85,-7.23c-3.84,-2.98 -7.8,-5.98 -11.49,-9.15c-3.69,-3.17 -6.29,-7.64 -9.81,-10.99c-3.53,-3.36 -8.08,-5.76 -11.43,-9.29c-3.35,-3.52 -4.73,-8.88 -7.9,-12.57c-3.17,-3.69 -7.84,-6.18 -10.83,-10.02c-2.97,-3.85 -6.13,-7.66 -8.92,-11.65c-2.78,-3.99 -3.49,-9.37 -6.07,-13.5c-2.57,-4.13 -7.4,-6.96 -9.77,-11.22c-2.36,-4.25 -3.8,-9.07 -5.94,-13.45c-2.15,-4.35 -2.36,-9.61 -4.28,-14.09c-1.92,-4.46 -3.87,-8.87 -5.56,-13.44c-1.69,-4.55 -5.67,-8.36 -7.13,-13.02c-1.45,-4.62 -2.35,-9.5 -3.57,-14.23c-1.21,-4.69 0.93,-10.16 -0.05,-14.94c-0.97,-4.75 -2.45,-9.34 -3.18,-14.17c-0.73,-4.79 -2.09,-9.47 -2.58,-14.33c-0.48,-4.81 0.06,-9.68 -0.19,-14.56c-0.24,-4.84 -1.16,-9.62 -1.16,-14.51s0.96,-9.68 1.2,-14.51c0.25,-4.89 -2.03,-9.92 -1.54,-14.74c0.49,-4.86 4.05,-9.29 4.78,-14.08c0.73,-4.83 -2.36,-10.33 -1.39,-15.08c0.98,-4.78 2.58,-9.5 3.79,-14.19c1.22,-4.73 2.26,-9.58 3.71,-14.21c1.46,-4.66 3.61,-9.15 5.29,-13.7c1.7,-4.58 3.08,-9.35 5,-13.81c1.92,-4.48 6.65,-7.68 8.79,-12.03c2.15,-4.38 4.4,-8.62 6.76,-12.87c2.37,-4.26 3.08,-9.48 5.65,-13.6c2.58,-4.13 5.6,-8.01 8.38,-12c2.78,-3.99 5.79,-7.85 8.77,-11.69c2.98,-3.85 6.72,-7.07 9.89,-10.76c3.17,-3.69 5.24,-8.4 8.59,-11.93c3.36,-3.52 6.48,-7.37 10.01,-10.73c3.52,-3.35 8.15,-5.56 11.84,-8.73c3.69,-3.17 7.28,-6.49 11.13,-9.47c3.84,-2.98 8.44,-4.93 12.43,-7.72c3.99,-2.78 8.53,-4.63 12.66,-7.2c4.12,-2.58 6.98,-7.26 11.24,-9.63c4.25,-2.36 8.81,-4.21 13.19,-6.36c4.35,-2.14 9.32,-2.96 13.8,-4.89c4.46,-1.91 8.53,-4.79 13.1,-6.49c4.55,-1.69 9.61,-1.86 14.26,-3.32c4.63,-1.45 8.87,-4.24 13.6,-5.46c4.69,-1.21 9.26,-3.27 14.04,-4.25c4.75,-0.97 9.81,-0.47 14.64,-1.21c4.79,-0.72 9.65,-0.93 14.52,-1.42c4.81,-0.49 9.63,-1.03 14.52,-1.28c4.83,-0.24 9.68,-0.92 14.57,-0.92s9.86,-1.48 14.69,-1.24c4.88,0.24 9.68,2.11 14.5,2.59c4.86,0.49 9.96,-0.56 14.75,0.16c4.83,0.74 9.32,3.57 14.07,4.54c4.78,0.98 9.08,3.82 13.77,5.04c4.73,1.22 9.98,0.41 14.61,1.86c4.66,1.46 8.91,4.04 13.46,5.73c4.58,1.69 9.66,2.12 14.11,4.04c4.48,1.92 8.89,4.09 13.25,6.23c4.37,2.15 8.28,5.2 12.53,7.57c4.26,2.36 8.76,4.33 12.88,6.9c4.13,2.58 7.93,5.68 11.91,8.46c4,2.79 7.84,5.77 11.69,8.75c3.84,2.98 6.38,7.48 10.07,10.65c3.69,3.17 8.41,5.12 11.93,8.47c3.53,3.36 7.83,5.96 11.18,9.48c3.35,3.53 6.05,7.69 9.22,11.38c3.17,3.69 5.75,7.85 8.73,11.7c2.98,3.84 5.14,8.23 7.93,12.22c2.78,3.99 8.29,6.2 10.87,10.33c2.58,4.12 1.75,10.26 4.12,14.52c2.36,4.24 5.65,7.94 7.8,12.32c2.14,4.35 3.58,9 5.5,13.47c1.92,4.46 5.99,8.08 7.68,12.65c1.69,4.55 2.71,9.39 4.17,14.04c1.45,4.63 0.77,9.86 1.99,14.59c1.22,4.69 3.17,9.18 4.15,13.96c0.97,4.75 2.74,9.37 3.48,14.2c0.73,4.79 0.34,9.73 0.83,14.59c0.49,4.82 0.85,9.64 1.09,14.52c0.24,4.83 1,9.66 1,14.55z" fill="#FBB164" id="svg_2"/>
  </g>
  <g id="svg_3" opacity="0.2">
   <path d="m296.33,10.6c-4.89,0 -9.8,-1.21 -14.63,-0.97c-4.89,0.25 -9.66,1.77 -14.48,2.26c-4.86,0.49 -9.9,-0.36 -14.69,0.37c-4.83,0.74 -9.37,3.08 -14.12,4.06c-4.78,0.97 -9.27,3.01 -13.96,4.22c-4.73,1.22 -9.75,1.23 -14.38,2.68c-4.65,1.46 -9.4,2.66 -13.95,4.34c-4.57,1.7 -9.04,3.68 -13.5,5.6c-4.48,1.92 -8.67,4.46 -13.03,6.6c-4.37,2.15 -7.89,5.81 -12.13,8.17c-4.26,2.37 -9.16,3.52 -13.28,6.1c-4.13,2.58 -7.21,6.63 -11.2,9.41c-3.99,2.78 -9.05,4.03 -12.9,7c-3.84,2.99 -8.79,4.69 -12.48,7.86c-3.69,3.17 -5.83,8.11 -9.36,11.46c-3.52,3.35 -7.72,6.04 -11.07,9.57c-3.35,3.52 -5.51,8.12 -8.68,11.81c-3.17,3.69 -6.32,7.35 -9.3,11.19c-2.98,3.85 -6.57,7.22 -9.35,11.22c-2.78,3.98 -4.96,8.36 -7.54,12.5c-2.58,4.12 -5.47,8.05 -7.84,12.3c-2.36,4.25 -4.73,8.51 -6.88,12.88c-2.14,4.36 -5.9,8.04 -7.83,12.52c-1.92,4.46 -2.15,9.67 -3.84,14.24c-1.69,4.55 -2.12,9.53 -3.58,14.19c-1.45,4.62 -3.55,9.06 -4.77,13.78c-1.21,4.7 -2.92,9.31 -3.9,14.09c-0.97,4.75 -2.67,9.44 -3.41,14.27c-0.73,4.79 2.02,10.02 1.54,14.88c-0.49,4.82 -4.67,9.38 -4.92,14.27c-0.24,4.83 0.84,9.78 0.84,14.68c0,4.73 -0.52,9.49 -0.3,14.17c0.23,4.72 3,9.24 3.46,13.9c0.46,4.71 0.43,9.41 1.11,14.04c0.69,4.68 -0.57,9.69 0.34,14.29c0.92,4.63 2.83,9.08 3.97,13.63c1.14,4.58 3.29,8.88 4.65,13.37c1.37,4.51 2.75,9.72 4.33,14.14c2.85,-5.87 5.95,-10.22 8.96,-13.12c4.24,-4.1 8.33,-8.03 13.71,-8.05c4.49,-0.02 9.46,3.36 15.36,4.81c4.54,1.11 9.32,3.55 14.98,4.88c5.17,1.21 9.69,2.18 13.71,4.42c4.46,2.49 10.14,3.46 13.44,6.95c3.38,3.57 3.91,9.45 6.35,13.77c2.39,4.22 6.13,7.92 7.89,12.57c1.73,4.58 2.17,9.68 3.56,14.4c1.4,4.78 4.17,9.14 5.48,13.78c1.37,4.91 -0.35,10.66 1.22,15.1c1.74,4.93 6.69,8.11 9.07,12.04c2.69,4.44 3.67,10.48 7.75,13.04c3.84,2.41 9.43,2.95 15.01,3.15c4.25,0.15 8.75,-2.56 14.26,-3.96c4.76,-1.21 9.15,-2.79 13.36,-3.77c4.84,-1.12 10.04,1.16 14.23,0.34c4.95,-0.98 9.31,-2.36 13.47,-2.94c5.1,-0.71 9.55,-1.91 13.66,-2.06c5.22,-0.2 9.99,-1.59 14.05,-0.97c4.93,0.75 9.37,2.77 13.4,4.58c4.08,1.83 7.84,4.58 11.9,7.32c3.5,2.37 7.75,4.25 11.87,7.18c3.44,2.44 5.86,6.97 10.1,9.73c4.75,3.09 9.94,3.19 14.27,4.26c5.11,1.27 9.52,1.54 14.36,0.73c4.75,-0.79 9.36,-1.99 14.17,-4.02c4.38,-1.85 8.47,-4.76 13.17,-7.02c4.32,-2.09 9.92,-1.79 14.7,-3.77c4.44,-1.84 8.49,-5.28 13.48,-6.66c4.94,-1.36 9.83,-2.18 14.42,-2.24c4.95,-0.06 9.64,2.13 14.3,2.7c4.88,0.6 9.63,2.41 14.33,2.68c4.81,0.27 9.37,-3.09 14.14,-4.28c4.83,-1.2 10.21,-1.5 13.81,-4.99c3.28,-3.19 4.9,-8.32 7.43,-12.87c2.25,-4.06 4.32,-8.48 6.18,-13.22c1.73,-4.43 4.8,-8.58 6.35,-13.3c1.51,-4.63 1.25,-9.89 2.73,-14.51c1.53,-4.75 1.69,-9.95 3.34,-14.39c1.78,-4.82 6.76,-8.03 8.87,-12.11c2.45,-4.7 4.19,-9.18 7.36,-12.34c3.33,-3.3 7.79,-2.1 12.34,1.51c3.33,2.64 6.35,6.74 9.89,9.45c4.24,3.24 8.41,5.23 12.34,3.71c3.35,-1.29 7.29,-4.7 9.31,-10.49c1.37,-3.89 -0.48,-9.34 0.56,-14.42c0.89,-4.37 2.18,-8.91 2.98,-13.7c0.77,-4.6 1.65,-9.27 2.46,-13.87c0.85,-4.77 2.32,-9.37 3.35,-13.72c1.17,-5 2.95,-9.49 4.56,-13.35c2.2,-5.29 4.25,-10.57 7.73,-12.3c3.52,-1.75 8.41,-1.27 13.78,2.32c2.03,-4.1 4.51,-6.65 6.28,-10.8c1.8,-4.2 3.29,-8.52 4.84,-12.77c1.56,-4.29 2.64,-8.72 3.95,-13.05c-0.27,-4.87 1.48,-9.92 0.98,-14.72c-0.51,-4.84 -2.98,-9.47 -3.73,-14.24c-0.75,-4.81 -0.15,-9.9 -1.14,-14.63c-0.99,-4.76 -2.1,-9.58 -3.32,-14.25c-1.24,-4.7 -4.21,-8.94 -5.68,-13.55c-1.47,-4.63 -3.72,-8.97 -5.42,-13.5c-1.7,-4.55 -4.84,-8.44 -6.77,-12.88c-1.93,-4.46 -0.71,-10.36 -2.86,-14.7c-2.16,-4.35 -7.57,-6.96 -9.94,-11.18c-2.37,-4.24 -1.94,-10.12 -4.52,-14.22c-2.59,-4.1 -5.05,-8.39 -7.84,-12.35c-2.78,-3.97 -6.66,-7.2 -9.64,-11.02c-2.99,-3.83 -6.28,-7.42 -9.45,-11.09c-3.17,-3.67 -7.92,-5.85 -11.27,-9.36c-3.35,-3.5 -6.83,-6.75 -10.35,-10.08c-3.53,-3.33 -7,-6.58 -10.68,-9.74c-3.69,-3.14 -7.37,-6.16 -11.21,-9.12c-3.84,-2.96 -6.76,-7.09 -10.75,-9.85c-3.98,-2.77 -6.95,-7.15 -11.07,-9.72c-4.11,-2.55 -8.96,-3.99 -13.21,-6.34c-4.23,-2.35 -8.78,-4.15 -13.14,-6.28c-4.35,-2.13 -9.19,-3.17 -13.65,-5.08c-4.45,-1.9 -7.84,-6.57 -12.4,-8.25c-4.54,-1.67 -10.14,-0.36 -14.78,-1.8c-4.61,-1.45 -9.4,-2.08 -14.12,-3.29c-4.67,-1.2 -8.67,-5.44 -13.44,-6.41c-4.73,-0.96 -9.97,0.74 -14.79,0.01c-4.77,-0.72 -9.58,-0.81 -14.43,-1.3c-4.8,-0.48 -9.53,-1.45 -14.39,-1.69c-4.82,-0.24 -9.62,-0.82 -14.5,-0.82z" fill="#FFFFFF" id="svg_4"/>
  </g>
  <g id="svg_5">
   <path d="m296.79,125.55c0,5.48 -2.35,10.37 -4.33,15.13c-2.05,4.94 -4.04,9.92 -7.76,13.65c-3.72,3.72 -8.82,5.42 -13.76,7.47c-4.76,1.98 -9.53,4.49 -15.01,4.49s-11.2,-0.22 -15.97,-2.19c-4.94,-2.05 -8.83,-6.3 -12.55,-10.02c-3.73,-3.73 -6.34,-8.3 -8.39,-13.24c-1.97,-4.76 -3.21,-9.81 -3.21,-15.29s0.56,-10.8 2.53,-15.57c2.05,-4.93 3.97,-10.61 7.69,-14.33s9.35,-5.74 14.29,-7.79c4.76,-1.97 10.13,-4.78 15.61,-4.78s10.73,3.1 15.49,5.07c4.94,2.05 8.13,6.34 11.85,10.06c3.72,3.72 8.4,6.75 10.44,11.69c1.98,4.77 3.08,10.18 3.08,15.65z" fill="#7C411E" id="svg_6"/>
  </g>
  <g id="svg_7">
   <path d="m171.5,242.01c0,5.71 -0.45,11.52 -3.12,16.14c-2.75,4.76 -7.45,8.37 -12.21,11.13c-4.62,2.67 -10.03,3.58 -15.74,3.58s-10.39,-2.2 -15,-4.87c-4.76,-2.75 -11.16,-4.53 -13.92,-9.29c-2.67,-4.61 -0.63,-10.98 -0.63,-16.69s0.24,-10.76 2.91,-15.38c2.76,-4.76 6.82,-7.95 11.58,-10.7c4.61,-2.67 9.34,-6.47 15.06,-6.47s11.36,2.21 15.97,4.88c4.76,2.75 7.14,7.98 9.89,12.74c2.67,4.61 5.21,9.21 5.21,14.93z" fill="#7C411E" id="svg_8"/>
  </g>
  <g id="svg_9">
   <path d="m330.25,282.89c0,4.77 1.39,9.76 -0.33,13.91c-1.78,4.3 -5.07,8.13 -8.31,11.37s-8.09,4.04 -12.39,5.83c-4.15,1.71 -8.12,3.44 -12.89,3.44s-9.43,-0.03 -13.58,-1.76c-4.3,-1.78 -7.57,-5.16 -10.81,-8.4c-3.24,-3.24 -5.7,-6.89 -7.48,-11.19c-1.72,-4.15 -5.23,-8.43 -5.23,-13.2c0,-4.77 3.28,-9.16 5,-13.3c1.78,-4.3 5.08,-7.25 8.32,-10.49c3.24,-3.24 6.32,-6.21 10.62,-7.99c4.15,-1.72 8.39,-5.43 13.16,-5.43s8.96,3.86 13.1,5.58c4.3,1.78 9.22,2.83 12.46,6.07s5.03,7.85 6.81,12.15c1.72,4.15 1.55,8.64 1.55,13.41z" fill="#7C411E" id="svg_10"/>
  </g>
  <g id="svg_11">
   <path d="m211.86,420.73c0,5.16 -3.94,9.71 -5.8,14.19c-1.93,4.65 -3.18,9.88 -6.69,13.39c-3.5,3.5 -8.43,5.49 -13.07,7.42c-4.49,1.86 -9.35,4.43 -14.5,4.43s-9.36,-4.16 -13.84,-6.02c-4.65,-1.93 -10.56,-2.01 -14.06,-5.51s-3.52,-9.44 -5.45,-14.09c-1.86,-4.48 -3.93,-8.65 -3.93,-13.81c0,-5.16 -1.04,-10.62 0.82,-15.1c1.92,-4.65 4.71,-9.65 8.21,-13.15c3.5,-3.5 9.58,-3.67 14.23,-5.6c4.48,-1.86 8.86,-3.41 14.02,-3.41s10.08,0.24 14.56,2.1c4.65,1.93 10,3.59 13.51,7.09c3.5,3.5 6.11,8.47 8.04,13.11c1.85,4.49 3.95,9.8 3.95,14.96z" fill="#7C411E" id="svg_12"/>
  </g>
  <g id="svg_13">
   <path d="m419.15,450.2c0,4.77 -0.16,9.33 -1.88,13.47c-1.78,4.3 -3.23,9.34 -6.47,12.58s-7.89,5.64 -12.19,7.42c-4.15,1.72 -9.1,2.35 -13.86,2.35s-9.94,-0.09 -14.09,-1.81c-4.3,-1.79 -7.04,-6.4 -10.28,-9.64c-3.24,-3.24 -7.55,-6.11 -9.33,-10.41c-1.72,-4.15 -2.49,-9.19 -2.49,-13.96s1.36,-9.57 3.08,-13.71c1.78,-4.3 3.96,-8.95 7.2,-12.19c3.24,-3.24 8.61,-3.68 12.91,-5.47c4.15,-1.72 8.23,-4.42 12.99,-4.42s9.66,0.75 13.81,2.47c4.3,1.78 7.24,5.8 10.48,9.04c3.24,3.24 4.64,7.26 6.42,11.56c1.72,4.15 3.7,7.95 3.7,12.72z" fill="#7C411E" id="svg_14"/>
  </g>
  <g id="svg_15">
   <path d="m524.16,293.34c0,4.39 -0.68,8.9 -2.26,12.71c-1.64,3.95 -5.44,6.58 -8.41,9.56c-2.98,2.98 -6.7,4.17 -10.65,5.8c-3.81,1.58 -7.24,5.52 -11.62,5.52s-8.04,-3.41 -11.85,-4.99c-3.95,-1.63 -8.25,-2.55 -11.22,-5.53c-2.98,-2.97 -5.37,-6.66 -7.01,-10.61c-1.58,-3.81 -0.92,-8.07 -0.92,-12.46c0,-4.38 -0.9,-8.74 0.68,-12.55c1.63,-3.96 3.09,-8.71 6.07,-11.69c2.98,-2.98 8.46,-2.7 12.41,-4.34c3.81,-1.58 7.45,-3.39 11.84,-3.39s8.88,-0.25 12.69,1.33c3.95,1.64 7.19,4.81 10.16,7.79c2.98,2.97 5.58,6.45 7.22,10.4c1.59,3.81 2.87,8.07 2.87,12.45z" fill="#7C411E" id="svg_16"/>
  </g>
  <g id="svg_17">
   <path d="m449.01,168.81c0,5.19 0.36,10.31 -2.07,14.5c-2.5,4.33 -5.55,9.4 -9.87,11.9c-4.2,2.43 -10.05,0.73 -15.25,0.73s-9.89,-0.3 -14.09,-2.73c-4.33,-2.5 -8.83,-5.39 -11.34,-9.72c-2.42,-4.2 -3.09,-9.49 -3.09,-14.68c0,-5.2 1.2,-10.18 3.62,-14.38c2.51,-4.32 7.03,-6.58 11.36,-9.09c4.19,-2.42 8.35,-6.73 13.54,-6.73s10.66,2.04 14.86,4.47c4.32,2.51 8.26,6.61 10.76,10.94c2.43,4.19 1.57,9.59 1.57,14.79z" fill="#7C411E" id="svg_18"/>
  </g>
  <g id="svg_19">
   <path d="m584.29,298.14c0,4.9 0.72,9.8 0.48,14.63c-0.24,4.89 0.73,9.92 0.25,14.73c-0.49,4.87 -2.57,9.58 -3.29,14.37c-0.74,4.83 -3.81,9.2 -4.78,13.95c-0.98,4.78 -1.24,9.66 -2.45,14.35c-1.22,4.73 -1.18,9.8 -2.63,14.43c-1.46,4.65 -2.01,9.67 -3.7,14.22c-1.69,4.58 -6.61,7.86 -8.52,12.32c-1.93,4.48 -1.58,9.98 -3.72,14.34c-2.15,4.37 -3.54,9.23 -5.91,13.47c-2.36,4.26 -5.43,8.21 -8,12.33c-2.58,4.13 -8.27,6.18 -11.05,10.17c-2.79,3.99 -4.86,8.41 -7.84,12.25c-2.98,3.85 -4.1,9.22 -7.27,12.91c-3.17,3.69 -8.43,5.49 -11.78,9.01c-3.35,3.53 -5.62,8.1 -9.15,11.46c-3.52,3.35 -7.78,5.88 -11.47,9.05c-3.69,3.17 -6.2,7.81 -10.05,10.79c-3.84,2.98 -9.69,3.21 -13.69,5.99c-3.98,2.78 -6.73,7.38 -10.86,9.96c-4.12,2.57 -9.03,3.78 -13.29,6.14c-4.25,2.37 -7.25,7.16 -11.62,9.31c-4.36,2.14 -10.12,1.28 -14.6,3.2c-4.46,1.92 -8.13,5.8 -12.7,7.49c-4.55,1.69 -9.98,0.75 -14.64,2.21c-4.63,1.45 -9.01,3.55 -13.73,4.77c-4.7,1.21 -9.57,1.4 -14.35,2.38c-4.75,0.97 -9.44,1.8 -14.27,2.53c-4.79,0.73 -9.44,2.17 -14.3,2.66c-4.81,0.48 -9.62,0.68 -14.5,0.92c-4.84,0.24 -9.63,2.08 -14.53,2.08s-9.76,-0.33 -14.6,-0.58c-4.88,-0.24 -9.83,0.3 -14.65,-0.18c-4.86,-0.49 -9.44,-3.11 -14.23,-3.84c-4.83,-0.74 -10.07,0.83 -14.82,-0.14c-4.78,-0.98 -9.44,-2.71 -14.13,-3.93c-4.73,-1.22 -8.77,-4.74 -13.4,-6.19c-4.65,-1.46 -10.32,0.04 -14.87,-1.65c-4.58,-1.69 -8.68,-4.71 -13.14,-6.62c-4.48,-1.93 -7.99,-5.87 -12.35,-8.02c-4.37,-2.15 -9.16,-3.39 -13.41,-5.75c-4.25,-2.37 -9.04,-3.86 -13.16,-6.43c-4.13,-2.58 -7.76,-5.94 -11.75,-8.72c-3.99,-2.78 -9.01,-4.25 -12.85,-7.23c-3.84,-2.98 -7.8,-5.98 -11.49,-9.15c-3.69,-3.17 -6.29,-7.64 -9.81,-10.99c-3.53,-3.36 -8.08,-5.76 -11.43,-9.29c-3.35,-3.52 -4.73,-8.88 -7.9,-12.57c-3.17,-3.69 -7.84,-6.18 -10.83,-10.02c-2.97,-3.85 -6.13,-7.66 -8.92,-11.65c-2.78,-3.99 -3.49,-9.37 -6.07,-13.5c-2.57,-4.13 -7.4,-6.96 -9.77,-11.22c-2.36,-4.25 -3.8,-9.07 -5.94,-13.45c-2.15,-4.35 -2.36,-9.61 -4.28,-14.09c-1.92,-4.46 -3.87,-8.87 -5.56,-13.44c-1.69,-4.55 -5.67,-8.36 -7.13,-13.02c-1.45,-4.62 -2.35,-9.5 -3.57,-14.23c-1.21,-4.69 0.93,-10.16 -0.05,-14.94c-0.97,-4.75 -2.45,-9.34 -3.18,-14.17c-0.73,-4.79 -2.09,-9.47 -2.58,-14.33c-0.48,-4.81 0.06,-9.68 -0.19,-14.56c-0.24,-4.84 -1.16,-9.62 -1.16,-14.51s0.96,-9.68 1.2,-14.51c0.25,-4.89 -2.03,-9.92 -1.54,-14.74c0.49,-4.86 4.05,-9.29 4.78,-14.08c0.73,-4.83 -2.36,-10.33 -1.39,-15.08c0.98,-4.78 2.58,-9.5 3.79,-14.19c1.22,-4.73 2.26,-9.58 3.71,-14.21c1.46,-4.66 3.61,-9.15 5.29,-13.7c1.7,-4.58 3.08,-9.35 5,-13.81c1.92,-4.48 6.65,-7.68 8.79,-12.03c2.15,-4.38 4.4,-8.62 6.76,-12.87c2.37,-4.26 3.08,-9.48 5.65,-13.6c2.58,-4.13 5.6,-8.01 8.38,-12c2.78,-3.99 5.79,-7.85 8.77,-11.69c2.98,-3.85 6.72,-7.07 9.89,-10.76c3.17,-3.69 5.24,-8.4 8.59,-11.93c3.36,-3.52 6.48,-7.37 10.01,-10.73c3.52,-3.35 8.15,-5.56 11.84,-8.73c3.69,-3.17 7.28,-6.49 11.13,-9.47c3.84,-2.98 8.44,-4.93 12.43,-7.72c3.99,-2.78 8.53,-4.63 12.66,-7.2c4.12,-2.58 6.98,-7.26 11.24,-9.63c4.25,-2.36 8.81,-4.21 13.19,-6.36c4.35,-2.14 9.32,-2.96 13.8,-4.89c4.46,-1.91 8.53,-4.79 13.1,-6.49c4.55,-1.69 9.61,-1.86 14.26,-3.32c4.63,-1.45 8.87,-4.24 13.6,-5.46c4.69,-1.21 9.26,-3.27 14.04,-4.25c4.75,-0.97 9.81,-0.47 14.64,-1.21c4.79,-0.72 9.65,-0.93 14.52,-1.42c4.81,-0.49 9.63,-1.03 14.52,-1.28c4.83,-0.24 9.68,-0.92 14.57,-0.92s9.86,-1.48 14.69,-1.24c4.88,0.24 9.68,2.11 14.5,2.59c4.86,0.49 9.96,-0.56 14.75,0.16c4.83,0.74 9.32,3.57 14.07,4.54c4.78,0.98 9.08,3.82 13.77,5.04c4.73,1.22 9.98,0.41 14.61,1.86c4.66,1.46 8.91,4.04 13.46,5.73c4.58,1.69 9.66,2.12 14.11,4.04c4.48,1.92 8.89,4.09 13.25,6.23c4.37,2.15 8.28,5.2 12.53,7.57c4.26,2.36 8.76,4.33 12.88,6.9c4.13,2.58 7.93,5.68 11.91,8.46c4,2.79 7.84,5.77 11.69,8.75c3.84,2.98 6.38,7.48 10.07,10.65c3.69,3.17 8.41,5.12 11.93,8.47c3.53,3.36 7.83,5.96 11.18,9.48c3.35,3.53 6.05,7.69 9.22,11.38c3.17,3.69 5.75,7.85 8.73,11.7c2.98,3.84 5.14,8.23 7.93,12.22c2.78,3.99 8.29,6.2 10.87,10.33c2.58,4.12 1.75,10.26 4.12,14.52c2.36,4.24 5.65,7.94 7.8,12.32c2.14,4.35 3.58,9 5.5,13.47c1.92,4.46 5.99,8.08 7.68,12.65c1.69,4.55 2.71,9.39 4.17,14.04c1.45,4.63 0.77,9.86 1.99,14.59c1.22,4.69 3.17,9.18 4.15,13.96c0.97,4.75 2.74,9.37 3.48,14.2c0.73,4.79 0.34,9.73 0.83,14.59c0.49,4.82 0.85,9.64 1.09,14.52c0.24,4.83 1,9.66 1,14.55z" fill="none" id="svg_20" stroke="#63300F" stroke-miterlimit="10" stroke-width="14"/>
  </g>
  <path d="m216.43,215.03c0,2.33 0,3.33 0,4.14c0,0.97 0,1.49 0,2.58c0,1.11 -0.01,1.66 0.01,2.72c0.02,1.04 0.03,1.55 0.16,2.56c0.13,1.01 0.39,2 0.53,2.51c0.29,1.02 0.47,1.52 0.73,2.58c0.26,1.08 0.4,2.2 0.45,2.76c0.05,0.57 0.1,1.69 0.11,2.24c0.02,1.58 0.01,2.54 0.01,3c0.01,0.91 0.03,1.81 0.16,3.24c0.05,0.51 0.19,1.58 0.26,2.13c0.07,0.56 0.23,1.69 0.29,2.26c0.18,1.66 0.21,2.19 0.25,3.23c0.02,0.49 0.03,1.44 0.04,2.72c0,0.76 0,1.47 0,2.48c0,1.02 0,1.74 0,2.5c0,0.8 0,1.64 0,2.97c0,0.93 0,1.4 0,2.35c0,0.94 0,2.3 0,2.74c0,0.86 0,1.71 0,2.57c0,1.34 0,2.27 0,2.74c0,0.95 0,1.89 0,2.81c0,0.88 0,1.74 0,2.59c0,0.86 0,2.2 0,2.66c0,0.94 0,1.89 0,2.36c0,1.39 0,2.27 0,3.12c0,0.83 0,1.63 0,2.84c0,0.79 0,1.56 0,2.29c0,1.27 0,2.05 0,2.76c0,0.97 0,1.78 0,2.6c0,1.27 0,1.93 0,2.95c0,0.78 0,1.76 0,2.71c0,0.81 -0.14,1.67 0,2.59c0.14,0.93 0.71,1.59 0.94,2.35l0.06,0.86l0.07,1.04l0.63,0.39" fill="none" id="svg_22" stroke="#000000" stroke-width="5" transform="matrix(1 0 0 1 0 0)"/>
  <path d="m361.43,216.03c0,1.71 0,2.41 0,3.4c0,0.89 0.06,1.77 -0.02,2.64c-0.08,0.97 -0.44,1.76 -0.63,2.42c-0.28,0.95 -0.33,1.77 -0.35,2.59c-0.02,1.03 0,1.93 0,2.95c0,0.8 0,1.6 0,2.6c0,0.85 0.03,1.82 -0.01,2.6c-0.04,0.94 -0.57,1.67 -0.87,2.68c-0.15,0.52 -0.12,1.52 -0.12,2.23c-0.01,1.06 0,2.03 0,2.92c0,1.04 0,1.75 0,2.47c0,1.13 0,1.8 0,2.53c0,0.77 0,2.36 0,3.15c0,0.78 0,1.55 0,2.64c0,0.68 0,1.67 0,2.32c0,1.01 0,2.1 0,2.85c0,0.75 0,1.83 0,2.85c0,0.65 0,1.31 0,2.67c0,0.73 0,1.46 0,2.17c0,1.27 0,2.06 0,2.82c0,1.14 0,1.8 0,2.88c0,0.73 0,1.79 0,2.46c0,0.98 0,1.64 0,3.03c0,0.71 0,1.39 0,2.63c0,0.82 0,1.67 0,2.6c0,0.89 0,1.69 0,2.64c0,0.9 0,1.59 0,2.61c0,0.94 0,1.8 0,2.64c0,0.98 0,1.8 0,2.7l0,0.94" fill="none" id="svg_24" stroke="#000000" stroke-width="5"/>
  <path d="m160.43,338.03c1.02,0 1.98,0 2.8,0c0.9,0 1.84,0 2.69,0c0.86,0 1.88,0 2.72,0c0.97,0 1.8,0 2.78,0c0.72,0 1.42,0.3 2.19,0.83c0.61,0.42 1.66,0.17 2.67,0.17c0.76,0 1.69,-0.05 2.65,0c0.66,0.04 1.22,0.75 1.51,1.43c0.29,0.66 1.25,0.22 2.24,0.58c0.83,0.3 0.67,1.42 1.37,2.01c0.69,0.57 1.56,0.81 2.39,0.99c0.98,0.21 1.42,0.69 2,1.48c0.45,0.62 1.34,0.94 2,1.54c0.53,0.48 1.23,1.23 2,1.98c0.59,0.57 1.54,0.88 1.92,1.57c0.36,0.66 1.17,0.98 1.84,1.65c0.58,0.58 0.73,1.39 1.16,2.07c0.48,0.75 0.09,1.69 0.09,2.66c0,0.92 0,1.65 0,2.64c0,0.84 0.08,1.86 -0.04,2.59c-0.15,0.95 -0.45,1.75 -1.02,2.46c-0.59,0.73 -1.45,1.1 -1.83,1.8c-0.36,0.66 0.08,2.01 -0.56,2.44c-0.72,0.48 -1.49,0.71 -2,1.44c-0.51,0.73 -1.07,1.2 -1.8,1.92c-0.56,0.56 -1.25,1.29 -2.08,1.86c-0.66,0.45 -1.25,0.73 -1.92,1.55c-0.61,0.74 -1.33,1.27 -1.96,1.92c-0.5,0.52 -1.34,1.14 -1.94,1.48c-0.87,0.49 -0.79,1.64 -1.57,1.94c-0.87,0.34 -1.78,0.01 -2.64,0.01c-1.02,0 -1.85,0 -2.75,0c-0.79,0 -1.71,0 -2.73,0c-0.88,0 -1.58,0 -2.57,0c-0.83,0 -1.77,0 -2.56,0c-0.88,0 -1.52,0 -2.92,0c-0.73,0 -1.46,0 -2.15,0c-1.2,0 -2.18,0 -3.14,0c-0.79,0 -1.68,0 -2.32,0c-1.03,0 -2.13,0 -2.85,0c-0.69,0 -1.89,0 -2.62,0c-1.04,0 -1.84,0 -2.64,0c-1,0 -1.91,0 -2.88,0l-0.82,0" fill="none" id="svg_25" stroke="#000000" stroke-width="5"/>
  <path d="m195.43,355.03c4.4,0.44 5.2,0.71 6,1c0.8,0.29 1.99,0.7 2.8,0.83c0.82,0.13 1.7,0.15 2.17,0.16c1.53,0.02 2.09,0.01 3.3,0.01c0.64,0 1.29,0 1.96,0c0.68,0 2.77,0 3.47,0c0.7,0 1.4,0 2.11,0c0.71,0 1.43,0 2.15,0c0.73,0 2.96,0 3.73,0c0.77,0 1.56,0 2.35,0c0.81,0 1.62,0 2.45,0c1.68,0 2.54,0 3.4,0c0.88,0 1.76,0.01 2.65,0.04c0.91,0.03 1.82,0.06 2.75,0.13c1.88,0.14 2.84,0.27 3.8,0.4c0.97,0.13 1.95,0.28 2.94,0.43c0.99,0.15 1.98,0.3 2.98,0.43c2,0.25 3,0.33 4,0.4c1,0.07 2,0.12 3,0.17c1,0.05 2,0.1 3,0.17c2,0.15 3,0.27 4,0.4c1,0.13 2.01,0.28 3.02,0.43c1.02,0.15 2.04,0.31 3.06,0.43c2.08,0.26 3.14,0.33 4.2,0.4c1.08,0.06 2.17,0.1 3.27,0.13c1.12,0.03 2.26,0.04 3.41,0.04c2.36,0.01 3.57,0 4.8,0c1.24,0 2.48,0 3.73,0c1.25,0 2.49,0 3.73,0c2.43,0 3.63,0 4.8,0c1.16,0 2.3,0 3.43,0c1.12,0 2.23,0 3.34,0c2.2,0 3.3,0 4.4,0c1.1,0 2.2,0 3.3,0c1.1,0 2.2,0 3.3,0c2.2,0 3.3,0 4.4,0c1.1,0 2.19,0 3.28,0c1.08,0 2.16,0 3.24,0c2.12,0 3.16,0 4.2,0c1.02,0 2.04,0 3.04,0c1,0 1.98,0 2.96,0c1.92,0 2.86,0 3.8,0c0.93,0 1.84,0 2.74,0c0.9,0 1.78,0 2.65,0c1.72,0 2.57,0 3.4,0c0.83,0 1.66,0 2.48,0c0.83,0 1.65,0 2.48,0c1.68,0 2.54,0 3.4,0c0.87,0 1.75,0 2.64,0c0.89,0 1.78,0 2.68,0c1.8,0 2.7,0 3.6,0c0.9,0 1.79,0 2.68,0c0.88,0 1.76,0 2.64,0c1.72,0 2.56,0 3.4,0c0.83,0 1.67,0 2.5,0c0.84,0 1.69,0 2.55,0c1.76,0 2.67,0 3.6,0c0.94,0 1.88,0 2.83,0c0.95,0 1.89,0 2.83,0c1.83,0 2.73,0 3.6,0c0.87,0 1.73,0 2.59,0c0.87,0 1.74,0 2.63,0c1.85,0 2.81,0 3.79,0c1,0 2,0 2.99,0c0.98,0 1.93,0 2.85,0c1.71,0 2.48,0 3.2,0c0.68,0 1.33,0.01 1.96,0.04c0.62,0.03 1.24,0.06 1.88,0.13c1.34,0.14 2.05,0.27 2.81,0.4c0.78,0.13 1.59,0.28 2.42,0.43c0.84,0.15 1.7,0.3 2.56,0.43c1.71,0.25 2.56,0.33 3.39,0.4c0.82,0.06 1.62,0.1 2.41,0.13c0.76,0.02 1.51,0.04 2.23,0.04c1.36,0.01 1.99,0 2.6,0c0.58,0 1.15,0 1.69,0c0.53,0 1.05,0 1.56,0c1,0 1.5,0 2,0c0.5,0 0.99,0.01 1.48,0.02c0.48,0.01 0.96,0.03 1.44,0.06c0.92,0.07 1.36,0.13 1.8,0.2c0.42,0.06 0.83,0.14 1.23,0.22c0.38,0.07 0.74,0.15 1.09,0.22c0.64,0.12 0.93,0.17 1.2,0.2c0.26,0.03 0.51,0.05 0.75,0.06c0.24,0.01 0.47,0.02 0.7,0.02c0.48,0 0.74,0 1,0c0.27,0 0.53,0 0.8,0l0.26,0l0.25,0l0.24,0" fill="none" id="svg_27" stroke="#000000" stroke-width="5"/>
 </g>
</svg>