<?xml version="1.0" encoding="UTF-8"?>
<svg version="1.1" xmlns="http://www.w3.org/2000/svg" width="3426" height="2251">
<path d="M0 0 C0.81210938 0.74765625 1.62421875 1.4953125 2.4609375 2.265625 C62.31180893 59.28443627 70.526905 162.81120979 72.49511719 240.66210938 C73.70951047 292.65796858 71.40802547 344.37353968 65 396 C65.66193359 395.70867187 66.32386719 395.41734375 67.00585938 395.1171875 C98.05194177 381.5278493 129.16628098 371.58853305 163 368 C164.23363281 367.86851562 165.46726562 367.73703125 166.73828125 367.6015625 C170.16221352 367.30382926 173.56523382 367.12174789 177 367 C177.72880371 366.97276855 178.45760742 366.94553711 179.20849609 366.91748047 C230.08863832 365.26949868 280.7857551 381.85486451 319 416 C319.75603516 416.66781494 319.75603516 416.66781494 320.52734375 417.34912109 C342.94578214 437.22062059 360.4286624 460.77299557 373 488 C373.77923828 489.64935547 373.77923828 489.64935547 374.57421875 491.33203125 C397.66663064 542.42626544 398.27389335 604.86732724 399 660 C399.01095703 660.78564331 399.02191406 661.57128662 399.03320312 662.3807373 C400.25361983 753.8805824 393.0165496 845.33808222 381.80587578 936.09348297 C381.46160649 938.88404646 381.12126289 941.67508336 380.78105545 944.46614456 C380.54758834 946.36427705 380.30717412 948.26155109 380.0664978 950.15878296 C377.85579501 968.24050997 379.67559068 984.07870552 390.58984375 999.203125 C399.41747679 1010.08707726 412.34982683 1016.63203454 426 1019 C429.07706898 1019.26282696 432.13547811 1019.30086082 435.22265625 1019.30859375 C436.98356757 1019.33113162 438.74447241 1019.35418123 440.50537109 1019.37768555 C441.41309265 1019.38681976 442.32081421 1019.39595398 443.25604248 1019.40536499 C493.46020112 1019.98022177 540.79820498 1032.53485952 587.0625 1051.75 C619.50688554 1065.2198324 652.15571224 1069.11060306 685.46484375 1055.94921875 C691.37936161 1053.48967954 696.811362 1050.39975451 702.27539062 1047.0546875 C749.45571394 1018.20148865 804.5993645 1008.29380955 859 1004 C860.16837402 1003.90428711 861.33674805 1003.80857422 862.54052734 1003.70996094 C877.5845878 1002.64641276 892.67584771 1002.75412784 907.75 1002.75 C908.85994324 1002.74933722 908.85994324 1002.74933722 909.99230957 1002.74866104 C1016.72951812 1002.71532548 1016.72951812 1002.71532548 1058 1016.9375 C1059.28632324 1017.37594238 1059.28632324 1017.37594238 1060.59863281 1017.82324219 C1090.33006952 1028.38614618 1115.36132003 1045.36054452 1138 1067 C1139.01513672 1067.95326172 1139.01513672 1067.95326172 1140.05078125 1068.92578125 C1145.18466353 1073.87083108 1149.60218891 1079.40339302 1154 1085 C1154.45536133 1085.57363281 1154.91072266 1086.14726563 1155.37988281 1086.73828125 C1163.94286506 1097.58279029 1171.14744231 1109.01313026 1178 1121 C1178.36544922 1121.62632324 1178.73089844 1122.25264648 1179.10742188 1122.89794922 C1215.94399625 1186.24895845 1226.53529083 1264.98301405 1231 1337 C1231.0483902 1337.74131165 1231.0967804 1338.48262329 1231.14663696 1339.24639893 C1232.30287905 1357.39486774 1232.20071522 1375.57323262 1232.1875 1393.75 C1232.18723312 1394.57185162 1232.18696625 1395.39370323 1232.18669128 1396.24045944 C1232.17659141 1421.02755246 1231.99238076 1445.74708611 1230.18359375 1470.47973633 C1229.98673529 1473.18208996 1229.79787226 1475.88494152 1229.609375 1478.58789062 C1226.6874538 1519.97653406 1222.08679553 1561.15546233 1215.9375 1602.1875 C1215.69791565 1603.79727722 1215.69791565 1603.79727722 1215.45349121 1605.4395752 C1213.70181434 1617.12839812 1211.74330767 1628.76176178 1209.4609375 1640.359375 C1209.26551865 1641.36336838 1209.07009979 1642.36736176 1208.86875916 1643.40177917 C1199.38214259 1690.37995193 1170.07346027 1723.27210312 1131.03076172 1749.31347656 C1127.4532115 1751.60487872 1123.79773802 1753.74250622 1120.09375 1755.82226562 C1118.60194766 1756.66140444 1117.1155115 1757.51011342 1115.6328125 1758.36523438 C1074.1699205 1782.25423908 1027.39663596 1796.24677118 980 1802 C978.84532227 1802.14808105 977.69064453 1802.29616211 976.50097656 1802.44873047 C905.2788261 1811.30147034 832.06018096 1802.231066 763.92651367 1780.50341797 C730.74885119 1769.93595877 698.19192293 1768.72724771 663.64428711 1768.48431396 C640.00134174 1768.31410443 616.68011109 1767.87018577 593.40234375 1763.25 C585.61023404 1761.72374903 577.80662992 1760.26218249 570 1758.8125 C568.82653519 1758.59347519 568.82653519 1758.59347519 567.62936401 1758.37002563 C554.64080466 1755.95093327 541.62014715 1753.77214553 528.57958984 1751.65307617 C500.59427522 1747.10266759 473.54564234 1741.98565598 446.56591797 1733.07446289 C409.4672681 1720.88840573 377.51345855 1730.64532071 342.02072144 1743.31866455 C274.19205 1767.4432171 210.71395156 1773.01723349 139.64035034 1763.18154907 C82.437243 1755.29318232 25.15874549 1751.15640925 -32.5859375 1753.76953125 C-44.70512143 1754.30801975 -56.54072775 1754.18352671 -68.60449219 1752.79956055 C-86.33231445 1750.83323204 -104.21176282 1750.85287269 -122.02416992 1750.87060547 C-124.35318021 1750.86924631 -126.68219028 1750.86746351 -129.01119995 1750.86529541 C-135.27911089 1750.86077695 -141.54700518 1750.86248886 -147.81491637 1750.8656745 C-153.7627489 1750.86797279 -159.71058 1750.86620459 -165.65841249 1750.8647473 C-178.18251416 1750.86190802 -190.70660847 1750.8651526 -203.23070893 1750.87054767 C-213.87524522 1750.87499231 -224.51977056 1750.87425617 -235.16430664 1750.86962891 C-247.61865696 1750.86421718 -260.07300082 1750.86220533 -272.52735215 1750.86524117 C-279.08443651 1750.86679728 -285.64151487 1750.86707324 -292.19859886 1750.86370468 C-316.2635164 1750.85313844 -340.32400812 1750.87597345 -364.3840332 1751.40673828 C-365.21596392 1751.42348154 -366.04789464 1751.4402248 -366.90503538 1751.45747542 C-381.56957472 1751.76409229 -396.13930069 1752.85395864 -410.6953125 1754.69140625 C-411.48519562 1754.78893692 -412.27507874 1754.88646759 -413.08889771 1754.98695374 C-419.97966081 1755.84859866 -426.86107783 1756.77969575 -433.7421875 1757.71484375 C-434.85689423 1757.86614746 -435.97160095 1758.01745117 -437.12008667 1758.17333984 C-442.56743497 1758.9154062 -448.01257109 1759.669492 -453.45458984 1760.44970703 C-481.9439043 1764.47935317 -510.60471745 1766.39232657 -539.31917953 1767.94103622 C-541.61160595 1768.06515882 -543.90391268 1768.19131455 -546.19619751 1768.31802368 C-565.68793899 1769.39425102 -585.18197618 1770.39271993 -604.6875 1771.1875 C-605.58300568 1771.22424835 -606.47851135 1771.2609967 -607.40115356 1771.29885864 C-613.93317852 1771.56247819 -620.46623292 1771.78450383 -627 1772 C-628.82363241 1772.0610739 -628.82363241 1772.0610739 -630.68410587 1772.12338161 C-653.78815216 1772.88060981 -676.86766752 1773.15163601 -699.9832871 1773.1343255 C-704.60958098 1773.13171066 -709.23587335 1773.13416501 -713.86216736 1773.13571167 C-721.65168622 1773.13751335 -729.4411955 1773.13518641 -737.23071289 1773.13037109 C-745.06307604 1773.12558282 -752.8954201 1773.1255139 -760.7277832 1773.13037109 C-799.24022099 1773.15359874 -837.74898846 1773.13296744 -876.2578125 1772.5546875 C-877.26173251 1772.53997524 -877.26173251 1772.53997524 -878.28593373 1772.52496576 C-902.88422404 1772.16380397 -927.4941103 1771.59527893 -952.05859375 1770.20703125 C-952.76473753 1770.16756693 -953.47088131 1770.12810261 -954.19842339 1770.0874424 C-1021.79572624 1766.27236181 -1089.54751893 1761.07987064 -1156.80273438 1753.20605469 C-1158.52946381 1753.00440201 -1158.52946381 1753.00440201 -1160.29107666 1752.79867554 C-1162.47740116 1752.54221662 -1164.66342748 1752.28319487 -1166.84906006 1752.02090454 C-1177.28177475 1750.79052017 -1187.70895605 1749.85943244 -1198.21875 1749.796875 C-1199.03191681 1749.78990601 -1199.84508362 1749.78293701 -1200.68289185 1749.77575684 C-1203.28864855 1749.75852377 -1205.8941887 1749.75203752 -1208.5 1749.75 C-1209.39918152 1749.74899292 -1210.29836304 1749.74798584 -1211.22479248 1749.74694824 C-1227.31712785 1749.75906033 -1243.05127304 1750.72302624 -1259 1753 C-1260.46880615 1753.20085205 -1260.46880615 1753.20085205 -1261.96728516 1753.40576172 C-1324.67324318 1762.22328607 -1380.36150634 1790.32153901 -1426.5 1833.0625 C-1432.7213216 1838.74953051 -1439.27624016 1843.92530601 -1446 1849 C-1447.01126953 1849.76401123 -1447.01126953 1849.76401123 -1448.04296875 1850.54345703 C-1521.49365728 1905.64844447 -1614.0762092 1932.63674248 -1705.51855469 1920.50048828 C-1768.62979431 1911.42769437 -1846.40659556 1883.20532563 -1888 1832 C-1888.73734375 1831.10023437 -1889.4746875 1830.20046875 -1890.234375 1829.2734375 C-1921.99478126 1789.3200602 -1939.14971681 1739.49813642 -1953 1691 C-1953.32822754 1689.86159668 -1953.65645508 1688.72319336 -1953.99462891 1687.55029297 C-1965.38188852 1647.71510523 -1973.31501077 1606.85811398 -1980 1566 C-1980.14955139 1565.0885321 -1980.29910278 1564.17706421 -1980.45318604 1563.23797607 C-1995.54270149 1470.95311814 -2003.26475419 1377.6603583 -2009.66064453 955.95092773 C-2008.85939085 932.67642928 -2008.74239847 909.67214307 -2010.28283691 886.42788696 C-2013.31549099 840.30350281 -2013.31549099 840.30350281 -2011.26757812 823.63842773 C-2010.92247753 820.23559733 -2010.74261033 816.82901107 -2010.5703125 813.4140625 C-2010.5350798 812.71813492 -2010.49984711 812.02220734 -2010.46354675 811.30519104 C-2010.38965688 809.83955549 -2010.31590464 808.37391301 -2010.24227905 806.90826416 C-2005.70715656 718.61557749 -1979.5605803 627.02926482 -1917 562 C-1916.17798096 561.14510986 -1916.17798096 561.14510986 -1915.33935547 560.27294922 C-1907.95205763 552.63823979 -1900.41691932 545.50646422 -1892 539 C-1890.73528809 537.99528113 -1889.4709947 536.99003529 -1888.20703125 535.984375 C-1815.30413173 478.51070619 -1720.76055097 471.66699609 -1467.71183777 473.8401947 C-1434.47396021 477.85752965 -1401.52314432 484.08124943 -1369 492 C-1368.35963806 492.15472778 -1367.71927612 492.30945557 -1367.05950928 492.46887207 C-1330.94686809 501.20890858 -1295.25912694 512.6048053 -1261 527 C-1259.85950195 527.47018555 -1258.71900391 527.94037109 -1257.54394531 528.42480469 C-1183.41250624 559.04740024 -1114.32150098 602.49095251 -1055.73779297 657.37988281 C-1053.89853966 659.09458989 -1052.04586203 660.79394059 -1050.19140625 662.4921875 C-1040.97338024 670.97481107 -1032.27846968 679.83877645 -1023.79394531 689.05322266 C-1022.1589123 690.82754944 -1020.51506541 692.5930809 -1018.8671875 694.35546875 C-1013.45257935 700.16750471 -1008.25247688 706.11526276 -1003.31640625 712.34033203 C-1002.36134493 713.54443196 -1001.40251509 714.74554586 -1000.44140625 715.94482422 C-991.6645023 726.91342041 -983.61704875 738.19775963 -976 750 C-968.98425578 748.72263512 -962.11436401 747.03098677 -955.21557617 745.23291016 C-932.46253251 739.3090532 -909.47416139 734.82164728 -886 733 C-885.31679687 732.94360352 -884.63359375 732.88720703 -883.9296875 732.82910156 C-817.73961992 727.51250393 -746.45684218 741.98430064 -694.63964844 785.59375 C-685.89578185 793.0929566 -677.18178895 800.95386403 -670 810 C-670 810.66 -670 811.32 -670 812 C-669.40445312 812.27328125 -668.80890625 812.5465625 -668.1953125 812.828125 C-666.07352802 813.96075016 -664.62253164 815.11662872 -662.875 816.75 C-649.35716009 828.49594546 -632.78800043 832.93173448 -615.20263672 832.17919922 C-600.3424567 830.97022425 -588.2916199 823.23857031 -578 813 C-577.06027344 812.11248047 -577.06027344 812.11248047 -576.1015625 811.20703125 C-564.26004146 799.07081173 -559.41576343 781.7097567 -559.58862305 765.19116211 C-560.05206545 751.40612886 -564.95735917 740.59736122 -570.98706055 728.43896484 C-574.60024935 721.08784692 -577.28240404 714.03834907 -579 706 C-579.17055908 705.23236328 -579.34111816 704.46472656 -579.5168457 703.67382812 C-580.01600278 700.91143888 -580.20814457 698.28089681 -580.31640625 695.4765625 C-580.37973145 693.84448853 -580.37973145 693.84448853 -580.44433594 692.17944336 C-580.65685221 685.78683108 -580.8524812 679.39446876 -581 673 C-581.02317291 671.99939545 -581.02317291 671.99939545 -581.04681396 670.97857666 C-581.76003532 638.61358958 -581.76003532 638.61358958 -578 623 C-577.81195801 622.21189941 -577.62391602 621.42379883 -577.43017578 620.61181641 C-572.91866515 602.47604612 -565.19977026 585.01145678 -554 570 C-553.42765625 569.21882812 -552.8553125 568.43765625 -552.265625 567.6328125 C-548.48784432 562.62465371 -544.35790258 557.97381836 -540.125 553.34765625 C-538.33854024 551.37401229 -536.62883648 549.3669223 -534.9375 547.3125 C-531.64124338 543.45040096 -527.88299554 540.25670593 -524 537 C-523.14792969 536.26007812 -522.29585937 535.52015625 -521.41796875 534.7578125 C-507.38622367 522.74157116 -492.17159416 512.88076642 -476 504 C-475.13697266 503.52062988 -474.27394531 503.04125977 -473.38476562 502.54736328 C-432.43679788 479.93352749 -386.48099777 465.51994342 -340.8125 456.0625 C-340.09012146 455.912435 -339.36774292 455.76237 -338.62347412 455.60775757 C-330.78364693 453.99308133 -322.99777652 452.54451419 -315 452 C-315.1451001 451.29657471 -315.2902002 450.59314941 -315.43969727 449.8684082 C-323.44342343 410.69161846 -329.08728888 371.25758905 -332.77148438 331.44525146 C-332.97457003 329.27211565 -333.18620084 327.10009045 -333.40234375 324.92822266 C-337.38258356 283.75621955 -337.16246268 240.04711533 -332 199 C-331.91514343 198.32007996 -331.83028687 197.64015991 -331.74285889 196.93963623 C-323.54379851 132.16382306 -302.20692214 72.04099524 -257 24 C-256.07574219 23.01193359 -256.07574219 23.01193359 -255.1328125 22.00390625 C-236.00819325 2.19299684 -210.5980023 -12.40280686 -185 -22 C-183.90921143 -22.41306396 -183.90921143 -22.41306396 -182.79638672 -22.83447266 C-123.97948121 -44.73733376 -47.59976591 -45.03088966 0 0 Z " fill="#D7AA90" transform="translate(2012,36)"/>
<path d="M0 0 C1.007949 -0.00726608 1.007949 -0.00726608 2.0362606 -0.01467896 C7.15437518 -0.05102935 12.27239307 -0.06701204 17.390625 -0.07421875 C18.14596149 -0.07551662 18.90129799 -0.0768145 19.67952347 -0.0781517 C47.16636725 -0.11390847 74.31749815 1.05261947 101.640625 4.23828125 C102.49577698 4.33729736 103.35092896 4.43631348 104.23199463 4.53833008 C115.73567225 5.88264899 127.19798212 7.4484934 138.640625 9.23828125 C139.90197266 9.43534668 141.16332031 9.63241211 142.46289062 9.83544922 C167.04242144 13.77145142 191.27633273 19.32286735 214.86694336 27.30541992 C216.9314983 27.99978348 219.00082068 28.68000376 221.07250977 29.3527832 C230.12459739 32.30927619 239.00759249 35.58841567 247.828125 39.17578125 C248.50884064 39.45185211 249.18955627 39.72792297 249.89089966 40.01235962 C291.05905924 56.78908132 329.28806265 80.0012747 362.1875 110.00390625 C363.79083507 111.46426876 365.40506241 112.91278485 367.03125 114.34765625 C376.84138172 123.01854687 386.21117429 132.21206235 394.640625 142.23828125 C395.79691406 143.56085938 395.79691406 143.56085938 396.9765625 144.91015625 C428.96388097 181.68595947 457.25028168 227.11697964 470.640625 274.23828125 C470.86347168 274.99737793 471.08631836 275.75647461 471.31591797 276.53857422 C475.84636289 292.14713867 477.82017031 308.1260751 479.640625 324.23828125 C479.74665039 325.13401855 479.85267578 326.02975586 479.96191406 326.95263672 C482.16663538 347.69203134 482.64735711 370.9320254 477.640625 391.23828125 C477.31795654 392.61838379 477.31795654 392.61838379 476.98876953 394.02636719 C466.33000304 438.73095605 440.95466002 478.34810075 411.203125 512.80078125 C410.72641357 513.35306396 410.24970215 513.90534668 409.75854492 514.47436523 C400.43914477 525.147592 390.67406907 535.37182175 380.63916016 545.37011719 C378.87413956 547.12971605 377.11461367 548.89468522 375.35546875 550.66015625 C369.61809576 556.40089994 363.8337892 561.9852345 357.640625 567.23828125 C356.03294127 568.69273642 354.42822785 570.1504902 352.828125 571.61328125 C348.11219169 575.86476658 343.24297042 579.88875204 338.30712891 583.88085938 C336.40278388 585.43201061 334.51139369 586.99817054 332.62109375 588.56640625 C324.09113989 595.64019171 315.49028807 602.56632434 306.640625 609.23828125 C306.03959961 609.69380371 305.43857422 610.14932617 304.81933594 610.61865234 C290.01063506 621.84093027 274.97907629 632.75068293 259.640625 643.23828125 C267.09403972 645.91144687 274.6185429 648.07727538 282.265625 650.11328125 C289.91911235 652.15901248 297.46398511 654.38115999 304.95166016 656.97021484 C309.66499803 658.59918382 314.40906259 660.11243651 319.171875 661.58984375 C364.52267921 675.67429888 410.46232365 691.48539012 452.74755859 713.27197266 C454.62650819 714.23107538 456.51543698 715.1662342 458.41015625 716.09375 C462.50801404 718.10134453 466.57943511 720.15757553 470.640625 722.23828125 C471.43645996 722.6446582 472.23229492 723.05103516 473.05224609 723.46972656 C495.33471323 734.95182142 516.78244078 748.66593754 535.640625 765.23828125 C536.18702637 765.71313965 536.73342773 766.18799805 537.29638672 766.67724609 C557.33365181 784.18043972 577.33595906 807.54541529 579.640625 835.23828125 C581.80657445 875.82222818 565.47231133 915.11076846 538.5 945.1328125 C537.54927278 946.1701714 536.59626928 947.20545032 535.640625 948.23828125 C534.41085937 949.57439453 534.41085937 949.57439453 533.15625 950.9375 C512.2060922 972.7434649 485.19956801 986.93094959 457.14941406 997.30566406 C455.06131519 998.08189389 452.98590497 998.88098688 450.9140625 999.69921875 C428.20444949 1008.37418041 407.32091532 1011.41998182 383.390625 1008.05078125 C382.16561783 1007.88030777 382.16561783 1007.88030777 380.91586304 1007.70639038 C375.91807947 1007.00988488 370.92294857 1006.29641104 365.92938232 1005.5703125 C363.84157325 1005.26743292 361.75317556 1004.96906538 359.66455078 1004.671875 C328.62365319 1000.18102846 297.48493418 992.89729685 267.640625 983.23828125 C266.45484863 982.85623535 265.26907227 982.47418945 264.04736328 982.08056641 C216.67771841 966.71484086 171.29457149 945.60576226 129.640625 918.23828125 C128.97047363 917.79838867 128.30032227 917.35849609 127.60986328 916.90527344 C111.62166629 906.3312162 96.27470608 894.61415315 81.640625 882.23828125 C81.1254834 881.80660645 80.6103418 881.37493164 80.07958984 880.93017578 C66.66826208 869.68183946 54.03849658 857.71586183 41.640625 845.36328125 C40.75624756 844.48357666 39.87187012 843.60387207 38.96069336 842.69750977 C33.9796087 837.70412263 29.2192198 832.6012237 24.640625 827.23828125 C23.54830102 825.9883357 22.45456014 824.7396269 21.359375 823.4921875 C15.58836725 816.88255958 9.91829837 810.25412313 4.640625 803.23828125 C4.3722339 819.19477129 5.17629075 834.9560657 6.390625 850.86328125 C6.48054718 852.06594635 6.57046936 853.26861145 6.66311646 854.50772095 C8.59539278 880.25157722 10.86981333 905.7757831 15.70581055 931.15771484 C17.7021897 941.90295466 19.07476756 952.70415346 20.390625 963.55078125 C20.49744598 964.42091858 20.60426697 965.29105591 20.71432495 966.18756104 C27.80279548 1024.26311892 27.80279548 1024.26311892 20.640625 1049.23828125 C20.41487793 1050.04974609 20.18913086 1050.86121094 19.95654297 1051.69726562 C11.87324132 1079.98621554 -3.72190436 1101.14391155 -28.984375 1116.42578125 C-59.50453399 1133.10739453 -95.70797807 1138.72273063 -130.171875 1138.55078125 C-130.9565213 1138.5486261 -131.7411676 1138.54647095 -132.54959106 1138.54425049 C-144.69028647 1138.49092002 -156.49594791 1138.04346382 -168.359375 1135.23828125 C-169.20419434 1135.03960449 -170.04901367 1134.84092773 -170.91943359 1134.63623047 C-200.32743514 1127.45764534 -224.65113204 1113.08414196 -246.359375 1092.23828125 C-246.9169751 1091.70477051 -247.4745752 1091.17125977 -248.04907227 1090.62158203 C-252.26751905 1086.50814678 -255.98780636 1082.18018627 -259.546875 1077.48828125 C-260.09859375 1076.76382812 -260.6503125 1076.039375 -261.21875 1075.29296875 C-267.45664615 1066.966301 -273.09941831 1058.21321403 -278.359375 1049.23828125 C-278.75392883 1048.6069931 -279.14848267 1047.97570496 -279.55499268 1047.32528687 C-282.98346504 1041.59653494 -284.56137317 1036.31944129 -285.71875 1029.77734375 C-285.90911835 1028.77510269 -286.09948669 1027.77286163 -286.29562378 1026.74024963 C-286.91599317 1023.45065473 -287.51305761 1020.15731385 -288.109375 1016.86328125 C-288.54235943 1014.53535873 -288.97646079 1012.20764371 -289.41162109 1009.88012695 C-290.75266186 1002.67066884 -292.05927018 995.45521756 -293.359375 988.23828125 C-293.561073 987.12269836 -293.762771 986.00711548 -293.97058105 984.85772705 C-296.46739672 971.04479763 -298.90203265 957.22168028 -301.29345703 943.39013672 C-302.15697128 938.3971736 -303.03166009 933.40625261 -303.90982056 928.41584778 C-310.22236227 892.4844782 -315.61647757 856.41020991 -320.359375 820.23828125 C-320.66857151 817.92568764 -320.97847448 815.61318839 -321.2890625 813.30078125 C-323.02449555 800.34561414 -324.74185698 787.38825718 -326.421875 774.42578125 C-326.57188965 773.27400391 -326.7219043 772.12222656 -326.87646484 770.93554688 C-327.2816461 767.79658637 -327.68046719 764.65691631 -328.07354736 761.51641846 C-328.2769065 759.89558143 -328.48196091 758.27495671 -328.68817139 756.65447998 C-330.90218611 739.18531261 -332.60544995 721.68157733 -334.16702271 704.14451218 C-334.36314431 701.94602802 -334.56063346 699.74767064 -334.75854492 697.54934692 C-336.30231446 680.39970068 -337.83842346 663.24936867 -339.18017578 646.08251953 C-339.29453141 644.62011211 -339.40895447 643.15770996 -339.5234375 641.6953125 C-339.58306671 640.93343628 -339.64269592 640.17156006 -339.70413208 639.38659668 C-340.27557831 632.15845829 -340.89329485 624.93438919 -341.51169014 617.71014977 C-346.4907853 559.47458115 -350.51563235 501.19391707 -353.109375 442.80078125 C-353.13933437 442.1274601 -353.16929375 441.45413895 -353.20016098 440.76041412 C-354.54461275 410.41825681 -355.44973777 380.08086459 -355.89160156 349.71368408 C-355.93227276 346.97583999 -355.97619511 344.2380516 -356.02002335 341.50025654 C-357.24893935 264.37173252 -355.51089315 186.8829653 -346.859375 110.17578125 C-346.71597183 108.86270493 -346.71597183 108.86270493 -346.56967163 107.52310181 C-345.08012004 94.07068413 -342.92867724 81.05712793 -336.546875 68.92578125 C-336.19923096 68.25264893 -335.85158691 67.5795166 -335.4934082 66.88598633 C-329.03848035 54.7011886 -319.09599614 43.39839182 -307.0390625 36.5546875 C-304.94548338 34.91390573 -304.88263141 33.77856501 -304.359375 31.23828125 C-271.02988957 22.21368212 -236.90767821 16.43825325 -202.75021362 11.58444214 C-200.24666542 11.22196244 -197.74670679 10.83907988 -195.24633789 10.45532227 C-180.90970537 8.30827527 -166.64603424 7.42480614 -152.171875 6.80078125 C-149.60616432 6.68260075 -147.04049159 6.56359408 -144.47485352 6.44384766 C-136.30575711 6.06541311 -128.13579213 5.7077119 -119.96568298 5.35192108 C-116.24888613 5.18986189 -112.53213162 5.02684082 -108.81537533 4.86385441 C-104.76269205 4.68614947 -100.70999818 4.50868662 -96.65730476 4.331213 C-94.59111414 4.24070994 -92.52492532 4.15016565 -90.45873833 4.05957985 C-80.19285475 3.60952014 -69.92694868 3.16033288 -59.66051102 2.72306728 C-55.78856534 2.55787688 -51.91669868 2.39087978 -48.04484177 2.22362328 C-46.23782403 2.14603709 -44.43076959 2.06930017 -42.6236763 1.99349403 C-31.33700853 1.53305857 -31.33700853 1.53305857 -20.07348633 0.69897461 C-13.38521155 0.09942771 -6.71189175 0.03992598 0 0 Z " fill="#6C2912" transform="translate(512.359375,603.76171875)"/>
<path d="M0 0 C43.04534511 36.09357749 57.0871554 92.93114068 63.1875 146.625 C63.26640472 147.30568542 63.34530945 147.98637085 63.42660522 148.68768311 C66.42082944 174.95229284 67.38784198 201.31376535 67.31805801 227.72802353 C67.31237242 229.9242841 67.3095793 232.12053678 67.30697632 234.31680298 C67.08669355 362.73991936 67.08669355 362.73991936 53 405 C53.95624268 404.69408936 54.91248535 404.38817871 55.89770508 404.07299805 C91.08965326 392.85668983 126.71249015 383.01174159 163 376 C163.97179199 375.80857422 164.94358398 375.61714844 165.94482422 375.41992188 C200.10365228 368.80593392 237.46872151 365.58382745 272 371 C273.93746094 371.29197266 273.93746094 371.29197266 275.9140625 371.58984375 C302.45679087 376.23344737 327.35480587 390.22856949 343.0402832 412.42797852 C358.46032326 435.26952316 363.22130217 460.21534777 358.3125 487.3125 C355.8992387 499.70300798 352.04257761 511.08796417 346.8125 522.5625 C346.48677002 523.29364014 346.16104004 524.02478027 345.82543945 524.77807617 C339.88023491 537.31042989 331.00920888 547.63324819 321.16870117 557.24291992 C319.55575013 558.81909597 317.95964993 560.41095616 316.36523438 562.00585938 C309.89755315 568.43029533 303.18843868 574.37911257 296 580 C295.19892822 580.62962646 294.39785645 581.25925293 293.57250977 581.90795898 C261.47520618 606.8673496 225.73451007 625.43589143 187.48535156 639.10400391 C185.41585418 639.85008007 183.35854586 640.62986031 181.3046875 641.41796875 C163.61111333 648.13457123 145.01864281 652.18115141 126.5 655.875 C125.76062195 656.026203 125.0212439 656.17740601 124.25946045 656.33319092 C113.17227546 658.58354642 102.30438465 659.62950062 91 660 C91.30220459 661.22734863 91.60440918 662.45469727 91.91577148 663.71923828 C95.06567724 676.64914145 97.84496578 689.62927786 100.42993164 702.68310547 C101.06083471 705.86659707 101.69892035 709.04858765 102.33789062 712.23046875 C106.3364474 732.23867472 109.90592872 752.27690732 112.625 772.5 C112.83035209 774.00265575 113.03608227 775.50525987 113.2421875 777.0078125 C113.74181162 780.65809095 114.23484202 784.30921937 114.72518921 787.96075439 C114.9832511 789.87571408 115.24503658 791.79017093 115.50708008 793.70458984 C117.84850758 810.94207859 119.75032341 828.23636325 121.71685791 845.51977539 C121.96697636 847.71072455 122.21977547 849.90133528 122.47412109 852.09179688 C125.9437564 882.19755557 127.57708391 912.49361809 129.125 942.75 C129.16352081 943.48868317 129.20204163 944.22736633 129.24172974 944.98843384 C129.53374584 950.6574917 129.77879243 956.32775354 130 962 C130.06515305 963.66938629 130.06515305 963.66938629 130.13162231 965.37249756 C131.03726707 989.45620629 131.20080204 1013.52619728 131.1875 1037.625 C131.18738041 1038.58950073 131.18726082 1039.55400146 131.1871376 1040.54772949 C131.1721213 1136.67194106 125.19401458 1232.48128861 112 1332 C111.83411377 1333.25417725 111.66822754 1334.50835449 111.49731445 1335.80053711 C111.00199828 1339.53421002 110.50214599 1343.26723959 110 1347 C109.90746948 1347.68953766 109.81493896 1348.37907532 109.71960449 1349.08950806 C106.68769996 1371.63195208 103.24711616 1394.08600656 99.375 1416.5 C99.1872702 1417.59379974 98.99954041 1418.68759949 98.80612183 1419.81454468 C92.23208637 1457.99785061 92.23208637 1457.99785061 87.1875 1468.4375 C86.83985596 1469.18281982 86.49221191 1469.92813965 86.1340332 1470.69604492 C73.24941975 1497.74228409 51.30891704 1514.90846741 24 1526 C22.62521484 1526.60134766 22.62521484 1526.60134766 21.22265625 1527.21484375 C10.19792199 1531.94994031 -0.93586726 1533.56592109 -12.875 1533.5 C-14.10226807 1533.49355469 -15.32953613 1533.48710938 -16.59399414 1533.48046875 C-37.2075625 1533.06510951 -52.86536088 1523.46004089 -67 1509 C-82.9867665 1491.67868603 -90.92410468 1469.1448543 -96.33398438 1446.67480469 C-97.08859248 1443.64420116 -97.94930882 1440.6567756 -98.83691406 1437.66308594 C-102.75155797 1424.37875775 -105.35646133 1410.7547976 -108.13574219 1397.19824219 C-108.93175165 1393.31894435 -109.7500201 1389.44455248 -110.5703125 1385.5703125 C-114.672128 1365.95027222 -117.76095349 1346.21838229 -120.65039062 1326.39001465 C-120.98599749 1324.09572457 -121.32613147 1321.8021582 -121.66796875 1319.50878906 C-130.36389034 1261.02950327 -134.9419218 1201.97131392 -137.75 1142.9375 C-137.80907532 1141.72264923 -137.86815063 1140.50779846 -137.92901611 1139.25613403 C-139.91748438 1097.59939101 -140.20428342 1055.88586665 -140.18867874 1014.1890564 C-140.18747871 1010.6242463 -140.18803978 1007.0594391 -140.18869019 1003.49462891 C-140.18711708 963.21976949 -139.54162444 922.99944215 -138.12692261 882.75054932 C-138.00261488 879.07726956 -137.8925667 875.40385247 -137.78735352 871.72998047 C-137.20197187 851.74907708 -136.14251238 831.80668248 -134.97235489 811.85286713 C-134.81021838 809.08606501 -134.64936417 806.31919027 -134.48861694 803.55230713 C-132.84239804 775.307914 -130.94038424 747.08708442 -128.8125 718.875 C-128.71730261 717.60851498 -128.71730261 717.60851498 -128.62018204 716.3164444 C-127.28192028 698.524462 -125.92920649 680.73979786 -124 663 C-124.71317383 663.29656494 -125.42634766 663.59312988 -126.16113281 663.89868164 C-186.7686373 689.03182576 -257.8786036 708.55588173 -321.79296875 683.1484375 C-336.25508006 677.10375074 -349.22015331 669.37060123 -361 659 C-361.84046875 658.28070312 -362.6809375 657.56140625 -363.546875 656.8203125 C-374.61759801 647.15921571 -383.35190942 636.47126941 -391 624 C-391.54479004 623.11248047 -391.54479004 623.11248047 -392.10058594 622.20703125 C-405.27005079 600.36020233 -400.03685848 567.41315053 -394.43261719 543.58789062 C-393.23758466 538.94398184 -391.71843163 534.48036769 -390 530 C-389.62319092 529.01580078 -389.62319092 529.01580078 -389.23876953 528.01171875 C-383.12075668 512.33641822 -374.23291904 499.44184306 -363 487 C-362.33355469 486.26136719 -361.66710938 485.52273438 -360.98046875 484.76171875 C-332.67603878 455.02717021 -290.22572817 443.10751469 -251 437 C-249.98292969 436.83483887 -248.96585938 436.66967773 -247.91796875 436.49951172 C-210.83259421 430.68538118 -171.04814674 432.74467298 -134 438 C-134.21615967 437.28682617 -134.43231934 436.57365234 -134.6550293 435.83886719 C-138.44969272 423.2806982 -142.19708354 410.73853508 -145.28051758 397.98461914 C-146.35277622 393.55677941 -147.49920427 389.16841255 -148.76660156 384.79248047 C-160.65318872 343.66641526 -167.66163501 300.82648553 -172.25 258.3125 C-172.33308411 257.54299011 -172.41616821 256.77348022 -172.50177002 255.98065186 C-172.96675738 251.63029139 -173.40775601 247.27833435 -173.8182373 242.92248535 C-173.98004105 241.21110378 -174.15008626 239.50050594 -174.32128906 237.79003906 C-178.03003691 195.18596436 -176.49855519 150.51221163 -166 109 C-165.77473633 108.0939502 -165.54947266 107.18790039 -165.31738281 106.25439453 C-157.72071681 76.45252617 -143.1115371 49.33435185 -122 27 C-121.25363281 26.18917969 -120.50726562 25.37835938 -119.73828125 24.54296875 C-105.34983906 9.44105009 -87.43938199 -0.85349888 -68 -8 C-66.83791016 -8.46019531 -66.83791016 -8.46019531 -65.65234375 -8.9296875 C-42.0102278 -17.76701022 -20.08280871 -15.19539951 0 0 Z " fill="#6C2B15" transform="translate(1958,114)"/>
<path d="M0 0 C1.07121094 0.25692627 1.07121094 0.25692627 2.1640625 0.51904297 C18.44277124 4.60836145 35.15784934 12.13026647 48 23 C49.26650391 24.02673828 49.26650391 24.02673828 50.55859375 25.07421875 C62.84532676 35.49082497 72.05147988 48.78442438 74 65 C74.77824114 75.35329073 72.92237377 85.45243493 71.35095215 95.64468384 C66.95451018 124.32895878 63.83428856 153.12516052 61 182 C60.87461853 183.26321075 60.87461853 183.26321075 60.7467041 184.55194092 C52.45279236 268.26765003 50.33518516 352.94155535 55.81135559 517.30442047 C55.89418561 518.82817915 55.9766655 520.35195691 56.0587616 521.87575531 C56.97244818 538.82039785 58.06756654 555.73945624 59.50390625 572.6484375 C59.59350774 573.71538282 59.59350774 573.71538282 59.68491936 574.8038826 C60.5403638 584.90652204 61.69033023 594.94611259 63 605 C64.82678408 619.62274207 66.37784367 634.21547334 67.265625 648.92895508 C67.62338378 654.45860645 68.24806889 659.64885493 69.5612793 665.03149414 C72.02153803 676.07048479 69.10877983 685.2941024 63.25 694.5625 C62.18928866 696.05797203 61.10544846 697.53728716 60 699 C59.45988281 699.71800781 58.91976562 700.43601562 58.36328125 701.17578125 C47.8187258 714.05340537 32.71739525 721.86209626 18 729 C16.85273437 729.56460938 15.70546875 730.12921875 14.5234375 730.7109375 C-3.56798705 739.03035171 -23.3792585 743.2376474 -43 746 C-43.67224609 746.1038501 -44.34449219 746.2077002 -45.03710938 746.31469727 C-52.39193015 747.31577009 -59.82763861 747.18606255 -67.23583984 747.18530273 C-69.59881988 747.18747592 -71.96132171 747.20564512 -74.32421875 747.22460938 C-100.71964154 747.32490394 -125.55214561 741.68510666 -145.14453125 722.94921875 C-154.89204914 712.75439602 -159.29652381 700.29496752 -163 687 C-165.85906404 687 -167.27516388 688.31185666 -169.671875 689.859375 C-171.11639038 690.78218262 -171.11639038 690.78218262 -172.59008789 691.72363281 C-173.63285889 692.39233398 -174.67562988 693.06103516 -175.75 693.75 C-197.23116291 707.32921529 -219.95617601 720.25878491 -243.95336914 728.8671875 C-246.85778916 729.9471225 -249.67925944 731.14156257 -252.51953125 732.37890625 C-259.05231534 735.11325614 -265.68555853 737.15584167 -272.5 739.0625 C-273.72686523 739.40756592 -274.95373047 739.75263184 -276.21777344 740.1081543 C-286.41107145 742.92563516 -296.56593382 745.29081234 -307 747 C-307.84191895 747.14808105 -308.68383789 747.29616211 -309.55126953 747.44873047 C-343.43531946 753.27049529 -382.4618123 752.37157242 -415.71972656 743.59326172 C-418.29227721 742.92395786 -420.87517538 742.30763928 -423.4609375 741.69140625 C-477.24917131 728.61463732 -527.02996503 696.94445798 -561 653 C-562.00471887 651.73528809 -563.00996471 650.4709947 -564.015625 649.20703125 C-594.47323369 610.56159856 -616.31115374 563.19055567 -628.33251953 515.57226562 C-628.9315676 513.26371754 -629.58312532 510.9845131 -630.27734375 508.703125 C-646.74080833 454.29616312 -651.45745318 394.36367119 -651.375 337.875 C-651.37512085 336.57782043 -651.3752417 335.28064087 -651.37536621 333.94415283 C-651.35554543 307.17090382 -649.63775817 280.6361506 -647 254 C-646.83802099 252.32212169 -646.67622778 250.64422544 -646.51464844 248.96630859 C-643.53296993 218.40262975 -638.86815125 187.97995567 -631.73681641 158.1015625 C-631.00716059 155.03014185 -630.30378224 151.95368159 -629.60546875 148.875 C-620.10137494 107.4581684 -607.9958778 65.47294754 -578 34 C-577.46375 33.38898437 -576.9275 32.77796875 -576.375 32.1484375 C-566.14118428 20.94240928 -549.06707273 11.79946496 -533.90087891 10.79467773 C-530.26458497 10.6944528 -526.63764204 10.67136388 -523 10.6875 C-521.70360596 10.69241455 -520.40721191 10.6973291 -519.0715332 10.70239258 C-509.69112164 10.81702442 -501.08097861 11.50599923 -492 14 C-490.74316406 14.3403125 -489.48632812 14.680625 -488.19140625 15.03125 C-467.74641905 20.88286048 -448.24819802 29.06878328 -432 43 C-431.08347656 43.71736328 -431.08347656 43.71736328 -430.1484375 44.44921875 C-416.24854038 55.52470755 -405.02971883 73.91060573 -402.37939453 91.47070312 C-401.62490835 98.48926954 -401.55889806 105.50882942 -401.5625 112.5625 C-401.56209717 113.37601929 -401.56169434 114.18953857 -401.5612793 115.02770996 C-401.60412459 130.1484056 -403.45199233 144.28203418 -407 159 C-407.30902147 160.3065011 -407.61742942 161.61314744 -407.92529297 162.91992188 C-409.58613139 169.9483322 -411.29205352 176.96522512 -413.0234375 183.9765625 C-421.97410953 220.25560725 -427.98155559 256.758509 -431.2734375 293.98046875 C-431.3335199 294.65815811 -431.39360229 295.33584747 -431.45550537 296.03407288 C-431.65174887 298.35514025 -431.8286983 300.67694836 -432 303 C-432.08629166 304.15477341 -432.17258331 305.30954681 -432.26148987 306.49931335 C-432.95911045 316.59096604 -433.16324633 326.63252965 -433.16796875 336.74609375 C-433.17119834 338.41211472 -433.17456354 340.07813544 -433.17805481 341.74415588 C-433.18399078 345.21575576 -433.18590061 348.68733097 -433.18530273 352.15893555 C-433.18522176 355.66191808 -433.19212809 359.16476904 -433.20581055 362.66772461 C-433.42529558 419.73341383 -430.52304788 486.75843315 -389.26171875 530.828125 C-378.84712748 540.82901057 -365.09549154 547.34247897 -351 550 C-349.88625 550.226875 -348.7725 550.45375 -347.625 550.6875 C-322.96105421 552.81370222 -299.48514988 545.36633774 -280.25390625 529.7734375 C-277.76768861 527.57811896 -275.37847805 525.31119997 -273 523 C-272.21496094 522.2884375 -271.42992187 521.576875 -270.62109375 520.84375 C-230.74746908 483.46622704 -214.01962793 420.28891163 -201 369 C-200.54698136 367.24216008 -200.09386078 365.48434644 -199.640625 363.7265625 C-198.38719951 358.82715465 -197.18680343 353.91590652 -196 349 C-195.80728516 348.21463867 -195.61457031 347.42927734 -195.41601562 346.62011719 C-191.29825873 329.74552209 -188.28553516 312.66658946 -185.19859314 295.58106995 C-184.11700191 289.60708772 -182.97785953 283.6456979 -181.8125 277.6875 C-180.17729964 269.25880112 -178.7976093 260.79533246 -177.48168945 252.3112793 C-176.1137598 243.51786586 -174.57099068 234.75883898 -173 226 C-172.8411734 225.1123999 -172.6823468 224.2247998 -172.51870728 223.31030273 C-163.74099077 174.29957598 -163.74099077 174.29957598 -158.73583984 153.14501953 C-157.93091884 149.70474337 -157.16132412 146.25756133 -156.39453125 142.80859375 C-135.49740117 49.6707329 -135.49740117 49.6707329 -110 23 C-109.17048828 22.05833984 -109.17048828 22.05833984 -108.32421875 21.09765625 C-94.55402864 6.0290363 -73.39463112 0.09917615 -54 -3 C-52.88882813 -3.19207031 -51.77765625 -3.38414062 -50.6328125 -3.58203125 C-33.56534363 -5.54570778 -16.6353558 -4.02132895 0 0 Z " fill="#6C2B15" transform="translate(1719,861)"/>
<path d="M0 0 C11.55980384 10.70554161 18.48951692 25.1164287 19.16796875 40.91015625 C19.17975372 42.29423597 19.18620521 43.67837071 19.1875 45.0625 C19.19974609 45.72443359 19.21199219 46.38636719 19.22460938 47.06835938 C19.26100824 60.0627539 16.10499497 73.00767895 13.65884399 85.71139526 C10.14159989 104.08418521 7.03694127 122.39648812 5 141 C4.91423706 141.76824097 4.82847412 142.53648193 4.7401123 143.32800293 C-5.7207648 237.22269772 -10.34529713 332.07644822 -14.49761391 444.6362896 C-14.78030035 452.60244335 -15.1107097 460.56164235 -15.57421875 468.51953125 C-16.07727713 477.24586581 -16.11496836 485.94904284 -16.0625 494.6875 C-16.05745934 496.19075367 -16.05290111 497.69400903 -16.04882812 499.19726562 C-16.03806133 502.79821373 -16.02094861 506.39909493 -16 510 C-15.27296875 509.14019531 -14.5459375 508.28039063 -13.796875 507.39453125 C-0.83680231 492.13073596 12.54836975 476.81229706 28 464 C28.53544434 463.55076172 29.07088867 463.10152344 29.62255859 462.63867188 C76.54739212 423.35276474 133.44564807 395.11981066 196 399 C202.41503844 399.58866577 208.70353519 400.65493929 215 402 C216.25554688 402.26683594 217.51109375 402.53367187 218.8046875 402.80859375 C239.57957153 407.83477537 258.8306009 416.95385533 275 431 C275.80695312 431.68578125 276.61390625 432.3715625 277.4453125 433.078125 C328.78491886 477.81922396 344.16506286 550.01304782 348.8693428 614.91965866 C349.5334861 625.49423702 349.4051155 636.11130088 349.3264122 646.70087051 C349.31216632 648.79914812 349.30358406 650.89738352 349.29653931 652.99569702 C349.23060126 671.68767517 348.82331782 690.29319522 347.49038696 708.94177246 C346.68617323 720.2456438 346.05015561 731.55934615 345.4375 742.875 C345.37056946 744.09124054 345.30363892 745.30748108 345.23468018 746.56057739 C344.35842752 762.84229904 343.87470084 779.09437748 343.7265625 795.3984375 C343.71405929 796.69712328 343.71405929 796.69712328 343.70130348 798.02204514 C343.61980478 806.62410453 343.55778985 815.22560965 343.55715942 823.82808113 C343.55361788 827.04656442 343.53483765 830.26485712 343.51330185 833.48326492 C343.50717272 834.97214184 343.50802715 836.46106871 343.51684952 837.9499321 C343.61488006 854.91807984 340.27989878 869.39884706 328.5 882.125 C306.65214071 902.99019695 275.68823431 904.58493953 247.19824219 904.08447266 C218.27760934 903.32061472 189.56140689 894.14012199 169 873 C164.50406025 867.46587569 160.85201164 861.53030703 158 855 C157.72414063 854.38898437 157.44828125 853.77796875 157.1640625 853.1484375 C154.7371718 847.30948264 153.78544693 841.24787328 153 835 C152.91169922 834.31236572 152.82339844 833.62473145 152.73242188 832.91625977 C151.62178542 822.83963101 151.75706064 812.68703928 151.75 802.5625 C151.74899292 801.56134155 151.74798584 800.56018311 151.74694824 799.52868652 C151.75806132 783.15782274 152.57646662 767.21260258 155 751 C155.13921875 750.030625 155.2784375 749.06125 155.421875 748.0625 C156.49255359 740.68671418 157.73017873 733.34376868 159 726 C159.27715548 724.38609127 159.55416387 722.77215728 159.83105469 721.15820312 C160.75639958 715.77109528 161.68913512 710.38528943 162.625 705 C162.77706909 704.12347778 162.92913818 703.24695557 163.08581543 702.34387207 C163.52609058 699.81214143 163.9695404 697.28098805 164.4140625 694.75 C164.60921951 693.62631012 164.60921951 693.62631012 164.80831909 692.47991943 C165.45451427 688.82085776 166.16977028 685.1963171 167.00488281 681.57543945 C168.09265646 676.76254868 168.82926284 671.92842459 169.5078125 667.04296875 C169.70394386 665.64327347 169.70394386 665.64327347 169.90403748 664.21530151 C177.25061647 621.1699562 177.25061647 621.1699562 167.0859375 579.953125 C166 578 166 578 165 575 C163.1660541 573.91850278 163.1660541 573.91850278 161 573 C160.34644531 572.57460937 159.69289063 572.14921875 159.01953125 571.7109375 C150.08085663 566.30027074 139.6999831 566.57617955 129.76953125 568.88671875 C116.7983811 572.39422364 106.11600011 579.2749499 96 588 C95.0925 588.7734375 94.185 589.546875 93.25 590.34375 C86.74497212 596.05371892 81.28703518 602.16283932 76 609 C75.20980469 609.98613281 74.41960938 610.97226563 73.60546875 611.98828125 C66.78838446 620.6089406 60.78993959 629.66385521 55 639 C54.59313965 639.65387695 54.1862793 640.30775391 53.76708984 640.98144531 C26.0653346 685.86214414 4.04989804 736.90005504 -7.40917969 788.40429688 C-8.45651818 793.0056617 -9.70502443 797.54585068 -10.94921875 802.09765625 C-11.777892 805.13881448 -12.56000118 808.19007338 -13.33203125 811.24609375 C-25.182872 857.98443981 -25.182872 857.98443981 -42 875 C-42.58523437 875.65742187 -43.17046875 876.31484375 -43.7734375 876.9921875 C-57.69875369 892.33124137 -82.21757456 902.14164335 -102.62109375 903.33984375 C-121.99978741 903.97347406 -143.20287772 901.51869444 -158 888 C-158.78375 887.30777344 -159.5675 886.61554687 -160.375 885.90234375 C-186.9506735 861.11877981 -180.57931884 806.35680455 -181.79247665 772.68915176 C-182.46423506 752.36755244 -182.4708698 732.02438523 -182.57875642 711.69361526 C-182.6055174 706.66542747 -182.63613882 701.63727417 -182.668787 696.60912132 C-183.07938239 633.04806428 -183.18736932 569.48608079 -183.185606 505.92383003 C-183.18558346 505.11039536 -183.18556093 504.29696069 -183.1855377 503.45887648 C-183.18532523 496.54950889 -183.18532523 496.54950889 -183.18518938 493.59203278 C-183.18480332 481.25869109 -183.19272089 468.92537532 -183.20581055 456.59204102 C-183.27931663 385.99654156 -183.11430984 315.41680645 -182.0546875 244.828125 C-182.04385186 244.10588243 -182.03301622 243.38363985 -182.02185223 242.63951114 C-181.36625219 199.06780274 -180.57444367 155.49786916 -179.68470764 111.93032837 C-179.65666047 110.55599702 -179.65666047 110.55599702 -179.62804669 109.1539014 C-179.33417338 94.8894593 -179.00548176 80.62627005 -178.51171875 66.3671875 C-178.47707016 65.31079575 -178.44242157 64.25440399 -178.40672302 63.16600037 C-177.7289138 45.22477495 -172.7636452 30.77207243 -161 17 C-160.2575 16.01 -159.515 15.02 -158.75 14 C-141.27115093 -6.46716843 -109.94840218 -18.17925552 -83.8125 -20.75 C-53.58606317 -22.58190526 -23.7412834 -21.21788352 0 0 Z " fill="#6C2B15" transform="translate(2326,755)"/>
<path d="M0 0 C0.95961639 0.00215515 1.91923279 0.0043103 2.90792847 0.00653076 C17.5175976 0.05901096 31.80526826 0.53124112 46.1875 3.3125 C47.26161133 3.51649414 48.33572266 3.72048828 49.44238281 3.93066406 C92.19399558 12.26741058 135.84758949 29.33388505 168.1875 59.3125 C169.0535083 60.11276611 169.0535083 60.11276611 169.93701172 60.92919922 C188.60660244 78.38942374 204.61256475 101.60745437 205.70458984 127.95556641 C206.11430768 152.60472023 193.90166144 172.22596541 177.484375 189.9453125 C160.68890468 207.25492987 137.76986337 220.91348909 113.17651367 221.66015625 C94.6325428 221.86387619 78.95877713 216.50849897 65.39208984 203.72802734 C61.52055588 199.88785241 58.27296186 195.67332284 55.03686523 191.296875 C38.78952615 169.57813297 13.1463202 152.74565551 -13.8125 148.3125 C-27.35557779 147.11049878 -40.29619226 147.46551823 -51.75 155.5 C-57.65561686 160.47315104 -61.26760942 166.96185318 -62.05078125 174.65234375 C-62.4711388 189.36485812 -56.30158884 202.80127749 -46.3125 213.4375 C-35.69744612 223.44323055 -22.95304878 230.23522028 -9.8125 236.3125 C-9.11672852 236.64540039 -8.42095703 236.97830078 -7.70410156 237.32128906 C6.29624998 243.98361242 20.91666115 248.59176981 35.65625 253.28808594 C46.92091562 256.88378443 58.0876701 260.67329538 69.1875 264.75 C69.83948364 264.98917145 70.49146729 265.2283429 71.16320801 265.47476196 C74.27008521 266.61670512 77.37327321 267.76805178 80.47412109 268.92626953 C83.03699907 269.88300991 85.60168256 270.83227415 88.17041016 271.77294922 C97.11219551 275.06203276 105.8722468 278.64689576 114.5625 282.5625 C115.497453 282.98352493 115.497453 282.98352493 116.45129395 283.41305542 C133.57857002 291.15076021 149.10192476 300.09237087 164.1875 311.3125 C165.08597656 311.96476562 165.98445313 312.61703125 166.91015625 313.2890625 C179.97445194 323.19088261 191.47404471 335.43976197 200.1875 349.3125 C200.72793945 350.16642334 200.72793945 350.16642334 201.27929688 351.03759766 C210.73702301 366.20330951 215.62676049 381.93210714 219.1875 399.3125 C219.43628906 400.52679687 219.68507813 401.74109375 219.94140625 402.9921875 C226.02335022 438.46310546 216.23509307 474.78883073 195.96264648 504.14892578 C194.7243189 505.88595965 193.46295299 507.60256264 192.1875 509.3125 C191.73342773 509.92448242 191.27935547 510.53646484 190.81152344 511.16699219 C185.40251275 518.39271275 179.78432195 525.12702722 173.1875 531.3125 C172.383125 532.116875 171.57875 532.92125 170.75 533.75 C169.904375 534.595625 169.05875 535.44125 168.1875 536.3125 C167.589375 536.94542969 166.99125 537.57835937 166.375 538.23046875 C144.64527879 560.79902111 115.98060864 576.05586232 87.875 589.06738281 C85.73255726 590.05997529 83.599396 591.0684804 81.46875 592.0859375 C19.1568569 620.56687854 -56.94128421 625.28028732 -121.42504883 602.2175293 C-159.41373096 587.95667078 -198.765655 565.4277701 -216.77636719 527.34204102 C-226.28278756 506.16656605 -226.77302249 481.48676268 -218.91357422 459.63208008 C-209.50790831 435.25135429 -192.21883183 414.05665661 -168.63671875 402.5390625 C-158.38901126 398.08846755 -145.89583001 396.84661553 -135.21484375 400.78515625 C-127.9072756 403.94324637 -121.20419394 408.18571392 -114.60083008 412.60327148 C-78.894799 436.24948467 -28.53861713 460.61365698 15.53125 452.66015625 C27.54077991 449.56477963 38.26788027 442.6919296 45.1875 432.3125 C46.52788435 428.29134694 46.5170321 426.37107167 45.1875 422.3125 C35.23230848 408.53052176 16.66261552 402.88245207 1.63378906 396.72705078 C-8.22065261 392.68223391 -18.02396935 388.51395664 -27.8125 384.3125 C-28.89708496 383.84714844 -29.98166992 383.38179687 -31.09912109 382.90234375 C-62.48301363 369.34590584 -93.8121388 354.47160468 -122.8125 336.3125 C-124.13580322 335.48613037 -124.13580322 335.48613037 -125.48583984 334.64306641 C-171.54197911 305.69133713 -204.7111734 270.09906515 -218.140625 216.1953125 C-227.53888218 173.83013218 -220.04632397 128.87041373 -197.46630859 92.12158203 C-192.23933816 84.03035266 -186.01728454 76.78215422 -179.32373047 69.875 C-178.28218571 68.79812012 -177.24774412 67.71433993 -176.21923828 66.625 C-145.20773209 33.79036538 -102.5458954 14.83088593 -58.9375 5.375 C-57.95617096 5.15883026 -57.95617096 5.15883026 -56.95501709 4.93829346 C-38.15114265 0.85668069 -19.19308972 -0.07835197 0 0 Z " fill="#6C2B15" transform="translate(2940.8125,1101.6875)"/>
<path d="M0 0 C20.79832671 0 20.79832671 0 30.4375 1.3125 C31.4989624 1.45075195 32.5604248 1.58900391 33.65405273 1.73144531 C35.784184 2.0129195 37.91354116 2.30032822 40.04199219 2.59423828 C42.68480994 2.95676412 45.32940426 3.29222403 47.9765625 3.62109375 C68.86036661 6.37775589 95.84945989 12.07581529 111 28 C116.01921709 34.98418719 119.09937708 41.21791724 118 50 C111.93602478 71.74156968 91.40921378 84.34648846 73 95 C49.55839446 108.152737 25.11413994 118.34071541 0 128 C0 85.76 0 43.52 0 0 Z " fill="#D7AA90" transform="translate(512,943)"/>
<path d="M0 0 C87.04997681 0 87.04997681 0 106.6875 18.0625 C120.82785548 33.03911306 123.94233895 51.05691395 123.3828125 71.0078125 C122.48848818 88.96741974 114.97390504 102.9650387 101.80859375 115.00390625 C92.14522544 123.00773367 80.94746659 126.11390483 69 129 C76.58716579 142.31058236 84.26780025 155.54692038 92.25 168.625 C98.26684322 178.48505784 104.2456625 188.36641303 110.15734863 198.28997803 C111.00407776 199.71041114 111.85212038 201.13006218 112.70153809 202.54888916 C113.88666169 204.52916783 115.06700977 206.51221463 116.24609375 208.49609375 C116.59737839 209.08131302 116.94866302 209.66653229 117.31059265 210.26948547 C119.18013199 213.42904132 120.73907532 216.55105928 122 220 C116.76257215 220.78599947 112.22181967 221.05888733 107 220 C102.97917046 216.43514082 100.93245884 212.00228757 98.625 207.25 C97.92504705 205.92237273 97.21853352 204.59818585 96.50585938 203.27734375 C95.034842 200.54386581 93.58890347 197.7991863 92.15722656 195.04492188 C89.21069555 189.44348353 85.89366857 184.07979307 82.55664062 178.70523071 C80.78973059 175.85375104 79.04649117 172.98795752 77.3046875 170.12109375 C76.78307037 169.26308418 76.78307037 169.26308418 76.25091553 168.38774109 C69.91172034 157.93301272 63.78245857 147.35146231 57.63134766 136.78540039 C56.10530303 134.1797968 54.55357122 131.58928537 53 129 C39.8 128.67 26.6 128.34 13 128 C13 158.36 13 188.72 13 220 C8.71 220 4.42 220 0 220 C0 147.4 0 74.8 0 0 Z M13 13 C13 46.66 13 80.32 13 115 C26.48875 115.0928125 26.48875 115.0928125 40.25 115.1875 C44.47151855 115.22846802 44.47151855 115.22846802 48.77832031 115.27026367 C51.04491753 115.27903729 53.31151953 115.28667915 55.578125 115.29296875 C56.72587402 115.30831665 57.87362305 115.32366455 59.05615234 115.33947754 C73.91411518 115.34422146 87.21285468 111.25416751 98.22265625 100.96484375 C106.07286242 92.28648397 110.24093992 80.5756662 111 69 C111.07734375 68.04673828 111.07734375 68.04673828 111.15625 67.07421875 C111.80005287 52.8300802 107.65092108 39.8563133 98.8125 28.75 C87.60208503 16.80527837 73.75786604 14.3131555 58 13 C43.15 13 28.3 13 13 13 Z " fill="#000000" transform="translate(2649,1955)"/>
<path d="M0 0 C10.27824885 10.02485596 16.75018371 23.45007523 19.53515625 37.47265625 C19.53515625 38.46265625 19.53515625 39.45265625 19.53515625 40.47265625 C15.24515625 40.47265625 10.95515625 40.47265625 6.53515625 40.47265625 C6.17164062 39.43367188 5.808125 38.3946875 5.43359375 37.32421875 C-0.4829363 20.75077029 -7.05142359 9.71546066 -23.375 1.69921875 C-36.53959099 -3.52667451 -53.48312751 -3.74927091 -66.77734375 1.21875 C-76.95965046 5.96950647 -84.74840356 12.9513828 -89.46484375 23.28515625 C-92.8997045 33.18221264 -93.44602557 46.07901924 -90.02734375 56.09765625 C-80.06157211 75.95901805 -56.87199082 82.66775508 -37.46484375 89.47265625 C8.38054926 105.56376076 8.38054926 105.56376076 18.53515625 126.47265625 C24.18257459 140.59120211 25.2317746 159.22104567 19.53515625 173.47265625 C12.05826177 189.93341619 1.44481342 199.99594111 -15.46484375 206.47265625 C-23.98751572 209.19418175 -31.99109835 209.93926243 -40.90234375 209.84765625 C-42.02705078 209.85925781 -43.15175781 209.87085937 -44.31054688 209.8828125 C-62.83108972 209.81898524 -79.18858686 203.60549679 -92.46484375 190.47265625 C-102.89166698 178.70948384 -111.46484375 162.49909599 -111.46484375 146.47265625 C-107.17484375 146.47265625 -102.88484375 146.47265625 -98.46484375 146.47265625 C-98.02785156 147.99632813 -98.02785156 147.99632813 -97.58203125 149.55078125 C-92.80936657 165.77230075 -86.92015232 179.99131684 -71.65234375 188.91015625 C-57.02692729 196.84219126 -38.15377692 198.43972346 -22.08984375 193.78515625 C-16.9205742 191.84668017 -12.05973892 189.53893472 -7.46484375 186.47265625 C-6.85125 186.06660156 -6.23765625 185.66054687 -5.60546875 185.2421875 C1.64213529 179.77441543 6.97874638 170.34419249 8.53515625 161.47265625 C10.21300951 149.15194947 9.54593853 138.07474612 2.53515625 127.47265625 C-8.20936097 114.06402718 -23.47819903 109.39203396 -39.03369141 103.73339844 C-45.09913746 101.5047117 -51.12822028 99.18535173 -57.15234375 96.84765625 C-58.28478516 96.41678711 -59.41722656 95.98591797 -60.58398438 95.54199219 C-78.70725183 88.48933063 -94.31168642 79.65241687 -102.44921875 61.24609375 C-107.51532604 48.4852386 -107.41395314 31.23910889 -102.46484375 18.47265625 C-95.95693159 3.43353873 -84.9487745 -6.08430709 -70.15234375 -12.49609375 C-66.29196637 -13.97740135 -62.55017241 -14.92081885 -58.46484375 -15.52734375 C-57.64757813 -15.64980469 -56.8303125 -15.77226563 -55.98828125 -15.8984375 C-35.34716576 -18.36441147 -15.8424436 -13.65413484 0 0 Z " fill="#000000" transform="translate(3149.46484375,1968.52734375)"/>
<path d="M0 0 C36.63 0 73.26 0 111 0 C111 4.29 111 8.58 111 13 C78.66 13 46.32 13 13 13 C13 42.7 13 72.4 13 103 C43.36 103 73.72 103 105 103 C105 107.29 105 111.58 105 116 C74.64 116 44.28 116 13 116 C13 146.03 13 176.06 13 207 C46.33 207 79.66 207 114 207 C114 211.29 114 215.58 114 220 C76.38 220 38.76 220 0 220 C0 147.4 0 74.8 0 0 Z " fill="#000000" transform="translate(2253,1955)"/>
<path d="M0 0 C36.63 0 73.26 0 111 0 C111 4.29 111 8.58 111 13 C78.66 13 46.32 13 13 13 C13 42.7 13 72.4 13 103 C43.36 103 73.72 103 105 103 C105 107.29 105 111.58 105 116 C74.64 116 44.28 116 13 116 C13 146.03 13 176.06 13 207 C46.33 207 79.66 207 114 207 C114 211.29 114 215.58 114 220 C76.38 220 38.76 220 0 220 C0 147.4 0 74.8 0 0 Z " fill="#000000" transform="translate(1066,1955)"/>
<path d="M0 0 C47.85 0 95.7 0 145 0 C145 4.29 145 8.58 145 13 C123.22 13 101.44 13 79 13 C79 81.31 79 149.62 79 220 C74.71 220 70.42 220 66 220 C66 151.69 66 83.38 66 13 C44.22 13 22.44 13 0 13 C0 8.71 0 4.42 0 0 Z " fill="#000000" transform="translate(1838,1955)"/>
<path d="M0 0 C47.85 0 95.7 0 145 0 C145 4.29 145 8.58 145 13 C123.22 13 101.44 13 79 13 C79 81.31 79 149.62 79 220 C74.71 220 70.42 220 66 220 C66 151.69 66 83.38 66 13 C44.22 13 22.44 13 0 13 C0 8.71 0 4.42 0 0 Z " fill="#000000" transform="translate(1443,1955)"/>
<path d="M0 0 C4.29 0 8.58 0 13 0 C13 68.31 13 136.62 13 207 C45.34 207 77.68 207 111 207 C111 211.29 111 215.58 111 220 C74.37 220 37.74 220 0 220 C0 147.4 0 74.8 0 0 Z " fill="#000000" transform="translate(691,1955)"/>
</svg>
